<?xml version="1.0"?>
<svg version="1.1" xmlns="http://www.w3.org/2000/svg" xmlns:xlink="http://www.w3.org/1999/xlink" width="80" height="80">
    <desc iVinci="yes" version="4.6" gridStep="20" showGrid="no" snapToGrid="no" codePlatform="0"/>
    <g id="Layer1" name="Layer 1" opacity="1">
        <g id="Shape1">
            <desc shapeID="1" type="0" basicInfo-basicType="4" basicInfo-roundedRectRadius="12" basicInfo-polygonSides="6" basicInfo-starPoints="5" bounding="rect(-5.33333,-5.33334,10.6667,10.6667)" text="" font-familyName="Helvetica" font-pixelSize="20" font-bold="0" font-underline="0" font-alignment="1" strokeStyle="0" markerStart="0" markerEnd="0" shadowEnabled="0" shadowOffsetX="0" shadowOffsetY="2" shadowBlur="4" shadowOpacity="160" blurEnabled="0" blurRadius="4" transform="matrix(1,0,0,1,25.5,33.1667)" pers-center="0,0" pers-size="0,0" pers-start="0,0" pers-end="0,0" locked="0" mesh="" flag=""/>
            <path id="shapePath1" d="M20.1667,33.1667 C20.1667,30.2211 22.5545,27.8333 25.5,27.8333 C28.4455,27.8333 30.8333,30.2211 30.8333,33.1667 C30.8333,36.1122 28.4455,38.5 25.5,38.5 C22.5545,38.5 20.1667,36.1122 20.1667,33.1667 Z" style="stroke:#586156;stroke-opacity:1;stroke-width:2.5;stroke-linejoin:miter;stroke-miterlimit:2;stroke-linecap:round;fill:none;"/>
        </g>
        <g id="Shape2">
            <desc shapeID="2" type="0" basicInfo-basicType="0" basicInfo-roundedRectRadius="12" basicInfo-polygonSides="6" basicInfo-starPoints="5" bounding="rect(-5.33333,-5.33334,10.6667,10.6667)" text="" font-familyName="Helvetica" font-pixelSize="20" font-bold="0" font-underline="0" font-alignment="1" strokeStyle="0" markerStart="0" markerEnd="0" shadowEnabled="0" shadowOffsetX="0" shadowOffsetY="2" shadowBlur="4" shadowOpacity="160" blurEnabled="0" blurRadius="4" transform="matrix(1,0,0,1,55.0327,35.1667)" pers-center="0,0" pers-size="0,0" pers-start="0,0" pers-end="0,0" locked="0" mesh="" flag=""/>
            <path id="shapePath2" d="M49.6993,35.1667 C49.6993,32.2212 52.0872,29.8334 55.0327,29.8334 C57.9782,29.8334 60.366,32.2212 60.366,35.1667 C60.366,38.1122 57.9782,40.5 55.0327,40.5 C52.0872,40.5 49.6993,38.1122 49.6993,35.1667 Z" style="stroke:#596357;stroke-opacity:1;stroke-width:2.5;stroke-linejoin:miter;stroke-miterlimit:2;stroke-linecap:round;fill:none;"/>
        </g>
        <g id="Shape3">
            <desc shapeID="3" type="0" basicInfo-basicType="1" basicInfo-roundedRectRadius="12" basicInfo-polygonSides="6" basicInfo-starPoints="5" bounding="rect(-1.83333,-23.3333,3.66667,46.6667)" text="" font-familyName="Helvetica" font-pixelSize="20" font-bold="0" font-underline="0" font-alignment="1" strokeStyle="0" markerStart="0" markerEnd="0" shadowEnabled="0" shadowOffsetX="0" shadowOffsetY="2" shadowBlur="4" shadowOpacity="160" blurEnabled="0" blurRadius="4" transform="matrix(0.909091,0,0,1,40.1667,44.1667)" pers-center="0,0" pers-size="0,0" pers-start="0,0" pers-end="0,0" locked="0" mesh="" flag=""/>
            <path id="shapePath3" d="M38.5,20.8333 L41.8333,20.8333 L41.8333,67.5 L38.5,67.5 L38.5,20.8333 Z" style="stroke:none;fill-rule:evenodd;fill:url(#linearGradientFill3);fill-opacity:1;"/><defs><linearGradient id="linearGradientFill3" gradientUnits="userSpaceOnUse" x1="40.0221" y1="9.73375" x2="39.7467" y2="69.1917"><stop offset="0" stop-color="#6d796a" stop-opacity="1"/><stop offset="1" stop-color="#576055" stop-opacity="1"/></linearGradient></defs>
        </g>
        <g id="Shape4">
            <desc shapeID="4" type="0" basicInfo-basicType="1" basicInfo-roundedRectRadius="12" basicInfo-polygonSides="6" basicInfo-starPoints="5" bounding="rect(-1.83333,-23.3333,3.66667,46.6667)" text="" font-familyName="Helvetica" font-pixelSize="20" font-bold="0" font-underline="0" font-alignment="1" strokeStyle="0" markerStart="0" markerEnd="0" shadowEnabled="0" shadowOffsetX="0" shadowOffsetY="2" shadowBlur="4" shadowOpacity="160" blurEnabled="0" blurRadius="4" transform="matrix(0.909091,0,0,0.485714,25.6667,48.3333)" pers-center="0,0" pers-size="0,0" pers-start="0,0" pers-end="0,0" locked="0" mesh="" flag=""/>
            <path id="shapePath4" d="M24,37 L27.3333,37 L27.3333,59.6667 L24,59.6667 L24,37 Z" style="stroke:none;fill-rule:evenodd;fill:#586156;fill-opacity:1;"/>
        </g>
        <g id="Shape5">
            <desc shapeID="5" type="0" basicInfo-basicType="0" basicInfo-roundedRectRadius="12" basicInfo-polygonSides="6" basicInfo-starPoints="5" bounding="rect(-7.55972,-7.9351,15.1194,15.8702)" text="" font-familyName="Helvetica" font-pixelSize="20" font-bold="0" font-underline="0" font-alignment="1" strokeStyle="0" markerStart="0" markerEnd="0" shadowEnabled="0" shadowOffsetX="0" shadowOffsetY="2" shadowBlur="4" shadowOpacity="160" blurEnabled="0" blurRadius="4" transform="matrix(0.972559,0,0,0.936,47.6945,48.7496)" pers-center="0,0" pers-size="0,0" pers-start="0,0" pers-end="0,0" locked="0" mesh="" flag=""/>
            <path id="shapePath5" d="M40.3422,56.1769 C45.9715,55.7741 54.8658,48.2149 55.0467,41.3224 " style="stroke:#596357;stroke-opacity:1;stroke-width:3.5;stroke-linejoin:miter;stroke-miterlimit:2;stroke-linecap:round;fill:none;"/>
        </g>
        <g id="Shape6">
            <desc shapeID="6" type="0" basicInfo-basicType="0" basicInfo-roundedRectRadius="12" basicInfo-polygonSides="6" basicInfo-starPoints="5" bounding="rect(-30.5,-27.505,61,55.01)" text="" font-familyName="Helvetica" font-pixelSize="20" font-bold="0" font-underline="0" font-alignment="1" strokeStyle="0" markerStart="0" markerEnd="0" shadowEnabled="0" shadowOffsetX="0" shadowOffsetY="2" shadowBlur="4" shadowOpacity="160" blurEnabled="0" blurRadius="4" transform="matrix(1,0,0,1,40.3333,40.6667)" pers-center="0,0" pers-size="0,0" pers-start="0,0" pers-end="0,0" locked="0" mesh="" flag=""/>
            <path id="shapePath6" d="M9.83333,13.1667 C28.6667,12.9078 40.5,22.8383 40.5,22.8383 C40.5,22.8383 53.1666,13.1716 70.8333,13.1716 C70.8333,27.0102 70.1503,40.444 70.1667,56.505 C53.1666,56.505 40.5,68.1716 40.5,68.1716 C40.5,68.1716 27.6667,56.505 9.83333,56.505 C9.83333,43.6716 9.83333,25.848 9.83333,13.1667 Z" style="stroke:url(#linearGradientStroke6);stroke-width:3.5;stroke-linejoin:miter;stroke-miterlimit:2;stroke-linecap:round;fill:none;"/><defs><linearGradient id="linearGradientStroke6" gradientUnits="userSpaceOnUse" x1="45.5368" y1="12.443" x2="45.2904" y2="69.4548"><stop offset="0" stop-color="#727e6f" stop-opacity="1"/><stop offset="1" stop-color="#555e53" stop-opacity="1"/></linearGradient></defs>
        </g>
    </g>
</svg>
