<?xml version="1.0"?>
<svg version="1.1" xmlns="http://www.w3.org/2000/svg" xmlns:xlink="http://www.w3.org/1999/xlink" width="80" height="80">
    <desc iVinci="yes" version="4.6" gridStep="20" showGrid="no" snapToGrid="no" codePlatform="0"/>
    <g id="Layer1" name="Layer 2" opacity="1">
        <g id="Shape1">
            <desc shapeID="1" type="0" basicInfo-basicType="0" basicInfo-roundedRectRadius="12" basicInfo-polygonSides="6" basicInfo-starPoints="5" bounding="rect(-34.2142,-33.4238,68.4285,66.8476)" text="" font-familyName="Helvetica" font-pixelSize="20" font-bold="0" font-underline="0" font-alignment="1" strokeStyle="0" markerStart="0" markerEnd="0" shadowEnabled="0" shadowOffsetX="0" shadowOffsetY="2" shadowBlur="4" shadowOpacity="160" blurEnabled="0" blurRadius="4" transform="matrix(1,0,0,1,40.662,39.2549)" pers-center="0,0" pers-size="0,0" pers-start="0,0" pers-end="0,0" locked="0" mesh="" flag=""/>
            <path id="shapePath1" d="M39.2644,5.83134 C61.7122,5.75865 75.0557,23.7342 74.8744,38.1759 C74.6037,59.7444 61.9135,68.1529 52.0156,72.3864 C48.6945,73.2446 49.2165,70.6759 49.2165,70.6759 C49.2165,70.6759 49.4633,62.4531 48.9242,58.6028 C48.7217,57.1563 47.0395,55.1256 47.0395,55.1256 C47.0395,55.1256 56.275,53.4145 59.0818,50.0124 C62.002,46.4728 62.4495,42.7946 62.4342,38.1528 C62.4254,35.4535 61.4601,30.8501 59.0132,29.1567 C60.5521,25.3384 58.747,19.5183 58.747,19.5183 C58.747,19.5183 52.8164,19.981 48.9055,23.5586 C42.7201,21.3244 37.9128,22.0104 32.2668,23.5586 C29.3696,20.5901 22.7811,19.8266 22.7811,19.8266 C22.7811,19.8266 20.3047,23.7472 22.3146,29.1567 C18.7972,32.8459 18.2893,38.0262 18.9078,42.6629 C19.6063,47.8985 23.3827,52.1173 26.8077,53.3926 C29.945,54.5607 34.196,55.3139 34.196,55.3139 C34.196,55.3139 31.8157,57.1003 32.112,59.6962 C30.5874,60.6808 27.3148,60.8292 25.635,60.142 C23.6939,59.3479 22.397,57.0715 21.1218,55.4403 C19.9839,54.0206 18.8376,53.4852 17.6532,53.1754 C16.745,52.9379 15.3904,53.02 15.3371,53.8816 C15.2756,54.8754 16.3512,54.8039 17.494,55.7476 C19.0916,57.0736 20.2283,59.7014 21.1987,61.8379 C22.5363,64.0979 24.4789,64.3958 26.3778,64.8784 C28.2894,65.3642 32.1113,64.6113 32.1113,64.6113 C32.1113,64.6113 31.8366,68.0973 31.9082,70.5606 C32.0101,72.2254 30.6027,73.0846 30.1336,72.4907 C25.4243,70.9238 6.98462,64.5334 6.45335,38.6314 C6.10882,21.8334 21.846,5.88774 39.2644,5.83134 Z" style="stroke:none;fill-rule:evenodd;fill:url(#linearGradientFill1);fill-opacity:1;"/><defs><linearGradient id="linearGradientFill1" gradientUnits="userSpaceOnUse" x1="40.662" y1="71.2549" x2="40.662" y2="5.83112"><stop offset="0" stop-color="#565f54" stop-opacity="1"/><stop offset="1" stop-color="#6e7a6b" stop-opacity="1"/></linearGradient></defs>
        </g>
    </g>
</svg>
