<?xml version="1.0"?>
<svg version="1.1" xmlns="http://www.w3.org/2000/svg" xmlns:xlink="http://www.w3.org/1999/xlink" width="80" height="80">
    <desc iVinci="yes" version="4.6" gridStep="20" showGrid="no" snapToGrid="no" codePlatform="0"/>
    <g id="Layer1" name="Layer 2" opacity="1">
        <g id="Shape1">
            <desc shapeID="1" type="0" basicInfo-basicType="0" basicInfo-roundedRectRadius="12" basicInfo-polygonSides="6" basicInfo-starPoints="5" bounding="rect(-34.2142,-33.4238,68.4284,66.8476)" text="" font-familyName="Helvetica" font-pixelSize="20" font-bold="0" font-underline="0" font-alignment="1" strokeStyle="0" markerStart="0" markerEnd="0" shadowEnabled="0" shadowOffsetX="0" shadowOffsetY="2" shadowBlur="4" shadowOpacity="160" blurEnabled="0" blurRadius="4" transform="matrix(0.881912,0,0,0.881912,40,35)" pers-center="0,0" pers-size="0,0" pers-start="0,0" pers-end="0,0" locked="0" mesh="" flag=""/>
            <path id="shapePath1" d="M38.7675,5.52336 C58.5645,5.45925 70.3323,21.3121 70.1724,34.0484 C69.9336,53.0699 58.742,60.4855 50.0129,64.2191 C47.084,64.9759 47.5444,62.7106 47.5444,62.7106 C47.5444,62.7106 47.762,55.4588 47.2866,52.0631 C47.108,50.7875 45.6244,48.9966 45.6244,48.9966 C45.6244,48.9966 53.7693,47.4875 56.2447,44.4872 C58.82,41.3656 59.2147,38.1217 59.2012,34.028 C59.1935,31.6475 58.3421,27.5877 56.1842,26.0943 C57.5414,22.7269 55.9494,17.5941 55.9494,17.5941 C55.9494,17.5941 50.7192,18.0021 47.2701,21.1572 C41.8151,19.1869 37.5755,19.7919 32.5962,21.1572 C30.0411,18.5393 24.2307,17.8659 24.2307,17.8659 C24.2307,17.8659 22.0467,21.3236 23.8192,26.0943 C20.7172,29.3478 20.2693,33.9164 20.8147,38.0056 C21.4308,42.6229 24.7612,46.3435 27.7818,47.4682 C30.5486,48.4984 34.2976,49.1626 34.2976,49.1626 C34.2976,49.1626 32.1984,50.7381 32.4597,53.0274 C31.1151,53.8958 28.229,54.0266 26.7475,53.4206 C25.0357,52.7203 23.8919,50.7127 22.7673,49.2741 C21.7638,48.0221 20.7528,47.5499 19.7083,47.2767 C18.9073,47.0672 17.7127,47.1396 17.6657,47.8995 C17.6115,48.7759 18.56,48.7129 19.5679,49.5451 C20.9768,50.7145 21.9793,53.032 22.8351,54.9162 C24.0148,56.9093 25.728,57.1721 27.4026,57.5977 C29.0885,58.0261 32.4591,57.3621 32.4591,57.3621 C32.4591,57.3621 32.2168,60.4365 32.28,62.6089 C32.3698,64.0771 31.1286,64.8348 30.7149,64.3111 C26.5617,62.9292 10.2995,57.2934 9.83101,34.4501 C9.52717,19.6358 23.406,5.5731 38.7675,5.52336 Z" style="stroke:none;fill-rule:evenodd;fill:url(#linearGradientFill1);fill-opacity:1;"/><defs><linearGradient id="linearGradientFill1" gradientUnits="userSpaceOnUse" x1="40" y1="63.2212" x2="40" y2="5.52317"><stop offset="0" stop-color="#565f54" stop-opacity="1"/><stop offset="1" stop-color="#6e7a6b" stop-opacity="1"/></linearGradient></defs>
        </g>
    </g>
</svg>
