<?xml version="1.0"?>
<svg version="1.1" xmlns="http://www.w3.org/2000/svg" xmlns:xlink="http://www.w3.org/1999/xlink" width="550" height="100">
    <desc iVinci="yes" version="4.6" gridStep="20" showGrid="no" snapToGrid="no" codePlatform="0"/>
    <g id="Layer1" name="Layer 1" opacity="1">
        <g id="Shape1">
            <desc shapeID="1" type="0" basicInfo-basicType="1" basicInfo-roundedRectRadius="12" basicInfo-polygonSides="6" basicInfo-starPoints="5" bounding="rect(-281.5,-57,563,114)" text="" font-familyName="Helvetica" font-pixelSize="20" font-bold="0" font-underline="0" font-alignment="1" strokeStyle="0" markerStart="0" markerEnd="0" shadowEnabled="0" shadowOffsetX="0" shadowOffsetY="2" shadowBlur="4" shadowOpacity="160" blurEnabled="0" blurRadius="4" transform="matrix(1,0,0,1,275,48.5)" pers-center="0,0" pers-size="0,0" pers-start="0,0" pers-end="0,0" locked="0" mesh="" flag=""/>
            <path id="shapePath1" d="M-6.5,-8.5 L556.5,-8.5 L556.5,105.5 L-6.5,105.5 L-6.5,-8.5 Z" style="stroke:#323232;stroke-opacity:1;stroke-width:1;stroke-linejoin:miter;stroke-miterlimit:2;stroke-linecap:round;fill-rule:evenodd;fill:#000000;fill-opacity:1;"/>
        </g>
    </g>
    <g id="Layer2" name="Layer 2" opacity="1">
        <g id="Shape2">
            <desc shapeID="2" type="0" basicInfo-basicType="0" basicInfo-roundedRectRadius="12" basicInfo-polygonSides="6" basicInfo-starPoints="5" bounding="rect(-23.0625,-35.875,46.125,71.75)" text="" font-familyName="Apple 컬러 이모티콘" font-pixelSize="100" font-bold="0" font-underline="0" font-alignment="1" strokeStyle="0" markerStart="0" markerEnd="0" shadowEnabled="0" shadowOffsetX="0" shadowOffsetY="2" shadowBlur="4" shadowOpacity="160" blurEnabled="0" blurRadius="4" transform="matrix(1,0,0,1,25.9844,50.0659)" pers-center="0,0" pers-size="0,0" pers-start="0,0" pers-end="0,0" locked="0" mesh="" flag=""/>
            <path id="shapePath2" d="M2.92188,85.9096 C2.92188,85.9096 2.95313,14.2221 2.95313,14.2221 C2.95313,14.2221 12.6406,14.1909 12.6406,14.1909 C12.6406,14.1909 12.6094,77.4096 12.6094,77.4096 C12.6094,77.4096 49.0469,77.4096 49.0469,77.4096 C49.0469,77.4096 49.0156,85.9409 49.0156,85.9409 C49.0156,85.9409 2.92188,85.9096 2.92188,85.9096 Z" style="stroke:none;fill-rule:evenodd;fill:url(#linearGradientFill2);fill-opacity:1;"/><defs><linearGradient id="linearGradientFill2" gradientUnits="userSpaceOnUse" x1="91.4864" y1="84.5878" x2="92.7269" y2="12.8949"><stop offset="0" stop-color="#439642" stop-opacity="1"/><stop offset="1" stop-color="#7cbf59" stop-opacity="1"/></linearGradient></defs>
        </g>
        <g id="Shape3">
            <desc shapeID="3" type="0" basicInfo-basicType="0" basicInfo-roundedRectRadius="12" basicInfo-polygonSides="6" basicInfo-starPoints="5" bounding="rect(-32.1391,-35.8793,64.2784,71.7586)" text="" font-familyName="Apple 컬러 이모티콘" font-pixelSize="100" font-bold="0" font-underline="0" font-alignment="1" strokeStyle="0" markerStart="0" markerEnd="0" shadowEnabled="0" shadowOffsetX="0" shadowOffsetY="2" shadowBlur="4" shadowOpacity="160" blurEnabled="0" blurRadius="4" transform="matrix(1,0,0,1,103.155,50.0824)" pers-center="0,0" pers-size="0,0" pers-start="0,0" pers-end="0,0" locked="0" mesh="" flag=""/>
            <path id="shapePath3" d="M71.0156,85.9219 C71.0156,85.9219 80.9531,85.9531 80.9531,85.9531 C80.9531,85.9531 88.7656,64.4219 88.7656,64.4219 C88.7656,64.4219 117.127,64.5005 117.127,64.5005 C117.127,64.5005 124.423,85.9617 124.423,85.9617 C124.423,85.9617 135.294,85.9095 135.294,85.9095 C135.294,85.9095 108.984,14.2031 108.984,14.2031 C108.984,14.2031 98.0156,14.2344 98.0156,14.2344 C98.0156,14.2344 71.0156,85.9219 71.0156,85.9219 Z" style="stroke:none;fill-rule:evenodd;fill:url(#linearGradientFill3);fill-opacity:1;"/><defs><linearGradient id="linearGradientFill3" gradientUnits="userSpaceOnUse" x1="91.4862" y1="84.5878" x2="92.7267" y2="12.8949"><stop offset="0" stop-color="#439642" stop-opacity="1"/><stop offset="1" stop-color="#7cbf59" stop-opacity="1"/></linearGradient></defs>
        </g>
        <g id="Shape4">
            <desc shapeID="4" type="0" basicInfo-basicType="0" basicInfo-roundedRectRadius="12" basicInfo-polygonSides="6" basicInfo-starPoints="5" bounding="rect(-28.3435,-35.8827,56.687,71.7653)" text="" font-familyName="Apple 컬러 이모티콘" font-pixelSize="100" font-bold="0" font-underline="0" font-alignment="1" strokeStyle="0" markerStart="0" markerEnd="0" shadowEnabled="0" shadowOffsetX="0" shadowOffsetY="2" shadowBlur="4" shadowOpacity="160" blurEnabled="0" blurRadius="4" transform="matrix(1,0,0,1,189.172,50.0552)" pers-center="0,0" pers-size="0,0" pers-start="0,0" pers-end="0,0" locked="0" mesh="" flag=""/>
            <path id="shapePath4" d="M164.107,22.7386 C164.107,22.7386 204.703,22.8906 204.703,22.8906 C204.703,22.8906 160.829,77.8276 160.829,77.8276 C160.829,77.8276 160.938,85.9378 160.938,85.9378 C160.938,85.9378 217.516,85.9219 217.516,85.9219 C217.516,85.9219 217.453,77.3594 217.453,77.3594 C217.453,77.3594 173.055,77.4022 173.055,77.4022 C173.055,77.4022 217.325,22.6089 217.325,22.6089 C217.325,22.6089 217.318,14.1725 217.318,14.1725 C217.318,14.1725 164.085,14.1866 164.085,14.1866 C164.085,14.1866 164.107,22.7386 164.107,22.7386 Z" style="stroke:none;fill-rule:evenodd;fill:url(#linearGradientFill4);fill-opacity:1;"/><defs><linearGradient id="linearGradientFill4" gradientUnits="userSpaceOnUse" x1="91.4869" y1="84.5878" x2="92.7274" y2="12.8949"><stop offset="0" stop-color="#439642" stop-opacity="1"/><stop offset="1" stop-color="#7cbf59" stop-opacity="1"/></linearGradient></defs>
        </g>
        <g id="Shape5">
            <desc shapeID="5" type="0" basicInfo-basicType="0" basicInfo-roundedRectRadius="12" basicInfo-polygonSides="6" basicInfo-starPoints="5" bounding="rect(-26.7341,-35.8898,53.4681,71.7797)" text="" font-familyName="Apple 컬러 이모티콘" font-pixelSize="100" font-bold="0" font-underline="0" font-alignment="1" strokeStyle="0" markerStart="0" markerEnd="0" shadowEnabled="0" shadowOffsetX="0" shadowOffsetY="2" shadowBlur="4" shadowOpacity="160" blurEnabled="0" blurRadius="4" transform="matrix(1,0,0,1,366.093,50.0946)" pers-center="0,0" pers-size="0,0" pers-start="0,0" pers-end="0,0" locked="0" mesh="" flag=""/>
            <path id="shapePath5" d="M339.391,85.9844 C339.391,85.9844 349.016,85.9531 349.016,85.9531 C349.016,85.9531 349.234,55.7031 349.234,55.7031 C349.234,55.7031 364.583,55.5654 371.385,55.5894 C372.83,55.5675 392.772,56.0799 392.827,35.1325 C392.883,13.9527 373.705,14.3419 371.849,14.2047 C361.019,14.2288 339.359,14.2344 339.359,14.2344 C339.359,14.2344 339.391,85.9844 339.391,85.9844 Z" style="stroke:none;fill-rule:evenodd;fill:url(#linearGradientFill5);fill-opacity:1;"/><defs><linearGradient id="linearGradientFill5" gradientUnits="userSpaceOnUse" x1="91.4865" y1="84.5878" x2="92.727" y2="12.8949"><stop offset="0" stop-color="#439642" stop-opacity="1"/><stop offset="1" stop-color="#7cbf59" stop-opacity="1"/></linearGradient></defs>
        </g>
        <g id="Shape6">
            <desc shapeID="6" type="0" basicInfo-basicType="0" basicInfo-roundedRectRadius="12" basicInfo-polygonSides="6" basicInfo-starPoints="5" bounding="rect(-4.81235,-35.828,9.62469,71.656)" text="" font-familyName="Apple 컬러 이모티콘" font-pixelSize="100" font-bold="0" font-underline="0" font-alignment="1" strokeStyle="0" markerStart="0" markerEnd="0" shadowEnabled="0" shadowOffsetX="0" shadowOffsetY="2" shadowBlur="4" shadowOpacity="160" blurEnabled="0" blurRadius="4" transform="matrix(1.0259,0,0,1.00044,438.235,50.0469)" pers-center="0,0" pers-size="0,0" pers-start="0,0" pers-end="0,0" locked="0" mesh="" flag=""/>
            <path id="shapePath6" d="M433.298,14.2031 C433.298,14.2031 443.172,14.2344 443.172,14.2344 C443.172,14.2344 443.172,85.8906 443.172,85.8906 C443.172,85.8906 433.33,85.8281 433.33,85.8281 C433.33,85.8281 433.298,14.2031 433.298,14.2031 Z" style="stroke:none;fill-rule:evenodd;fill:url(#linearGradientFill6);fill-opacity:1;"/><defs><linearGradient id="linearGradientFill6" gradientUnits="userSpaceOnUse" x1="91.4865" y1="84.5877" x2="92.727" y2="12.8949"><stop offset="0" stop-color="#439642" stop-opacity="1"/><stop offset="1" stop-color="#7cbf59" stop-opacity="1"/></linearGradient></defs>
        </g>
        <g id="Shape7">
            <desc shapeID="7" type="0" basicInfo-basicType="0" basicInfo-roundedRectRadius="12" basicInfo-polygonSides="6" basicInfo-starPoints="5" bounding="rect(-31.8157,-37.7506,63.6315,75.5012)" text="" font-familyName="Apple 컬러 이모티콘" font-pixelSize="100" font-bold="0" font-underline="0" font-alignment="1" strokeStyle="0" markerStart="0" markerEnd="0" shadowEnabled="0" shadowOffsetX="0" shadowOffsetY="2" shadowBlur="4" shadowOpacity="160" blurEnabled="0" blurRadius="4" transform="matrix(1,0,0,1,515.24,50.0004)" pers-center="0,0" pers-size="0,0" pers-start="0,0" pers-end="0,0" locked="0" mesh="" flag=""/>
            <path id="shapePath7" d="M547.056,59.6123 C547.056,59.6123 537.672,59.5495 537.672,59.5495 C537.672,59.5495 535.634,79.5027 515.851,79.2698 C503.526,79.1248 493.258,71.5613 493.418,49.2377 C493.512,36.2228 498.469,20.8722 516.721,20.5621 C534.648,20.2576 537.159,35.6664 537.159,35.6664 C537.159,35.6664 546.641,35.6768 546.641,35.6768 C546.641,35.6768 544.304,12.3155 517.021,12.2499 C493.361,12.1931 483.18,31.5549 483.429,49.9756 C483.681,68.6184 492.117,87.6902 514.979,87.7508 C547.06,87.8359 547.056,59.6123 547.056,59.6123 Z" style="stroke:none;fill-rule:evenodd;fill:url(#linearGradientFill7);fill-opacity:1;"/><defs><linearGradient id="linearGradientFill7" gradientUnits="userSpaceOnUse" x1="91.4866" y1="84.5878" x2="92.7271" y2="12.8949"><stop offset="0" stop-color="#439642" stop-opacity="1"/><stop offset="1" stop-color="#7cbf59" stop-opacity="1"/></linearGradient></defs>
        </g>
        <g id="Shape8">
            <desc shapeID="8" type="0" basicInfo-basicType="0" basicInfo-roundedRectRadius="12" basicInfo-polygonSides="6" basicInfo-starPoints="5" bounding="rect(-42.2174,-30.0737,84.4346,60.1474)" text="" font-familyName="Apple 컬러 이모티콘" font-pixelSize="100" font-bold="0" font-underline="0" font-alignment="1" strokeStyle="0" markerStart="0" markerEnd="0" shadowEnabled="0" shadowOffsetX="0" shadowOffsetY="2" shadowBlur="4" shadowOpacity="160" blurEnabled="0" blurRadius="4" transform="matrix(1,0,0,1,276.73,55.0669)" pers-center="0,0" pers-size="0,0" pers-start="0,0" pers-end="0,0" locked="0" mesh="" flag=""/>
            <path id="shapePath8" d="M273.993,85.1406 C273.993,85.1406 283.368,85.1094 283.368,85.1094 C283.368,85.1094 283.493,56.6332 283.493,56.6332 C283.493,56.6332 298.703,54.7269 306.311,49.4467 C315.228,43.2582 320.918,30.0879 318.312,27.1015 C315.088,23.4064 299.612,24.7246 291.528,29.8347 C283.586,34.8549 279.3,44.0212 279.3,44.0212 C279.3,44.0212 273.231,33.0461 264.138,28.5622 C254.156,23.6405 237.91,24.2968 235.035,29.3975 C231.865,35.0224 243.846,48.1376 251.456,52.164 C260.872,57.1455 273.9,56.9658 273.9,56.9658 C273.9,56.9658 273.993,85.1406 273.993,85.1406 Z" style="stroke:none;fill-rule:evenodd;fill:url(#linearGradientFill8);fill-opacity:1;"/><defs><linearGradient id="linearGradientFill8" gradientUnits="userSpaceOnUse" x1="254.39" y1="87.093" x2="254.803" y2="25.3243"><stop offset="0" stop-color="#439642" stop-opacity="1"/><stop offset="1" stop-color="#c8f293" stop-opacity="1"/></linearGradient></defs>
        </g>
    </g>
    <g id="Layer3" name="Layer 3" opacity="1">
        <g id="Shape9">
            <desc shapeID="9" type="0" basicInfo-basicType="0" basicInfo-roundedRectRadius="12" basicInfo-polygonSides="6" basicInfo-starPoints="5" bounding="rect(-11.2969,-15.8594,22.5939,31.7188)" text="" font-familyName="Apple 컬러 이모티콘" font-pixelSize="100" font-bold="0" font-underline="0" font-alignment="1" strokeStyle="0" markerStart="0" markerEnd="0" shadowEnabled="0" shadowOffsetX="0" shadowOffsetY="2" shadowBlur="4" shadowOpacity="160" blurEnabled="0" blurRadius="4" transform="matrix(1,0,0,1,102.75,40.6875)" pers-center="0,0" pers-size="0,0" pers-start="0,0" pers-end="0,0" locked="0" mesh="" flag=""/>
            <path id="shapePath9" d="M91.4531,56.5469 C91.4531,56.5469 114.047,56.5469 114.047,56.5469 C114.047,56.5469 103.109,24.8281 103.109,24.8281 C103.109,24.8281 91.4531,56.5469 91.4531,56.5469 Z" style="stroke:none;fill-rule:evenodd;fill:#000000;fill-opacity:1;"/>
        </g>
        <g id="Shape10">
            <desc shapeID="10" type="0" basicInfo-basicType="0" basicInfo-roundedRectRadius="12" basicInfo-polygonSides="6" basicInfo-starPoints="5" bounding="rect(-13.0856,-8.68086,26.1714,17.3617)" text="" font-familyName="Apple 컬러 이모티콘" font-pixelSize="100" font-bold="0" font-underline="0" font-alignment="1" strokeStyle="0" markerStart="0" markerEnd="0" shadowEnabled="0" shadowOffsetX="0" shadowOffsetY="2" shadowBlur="4" shadowOpacity="160" blurEnabled="0" blurRadius="4" transform="matrix(1,0,0,1,297.106,40.2107)" pers-center="0,0" pers-size="0,0" pers-start="0,0" pers-end="0,0" locked="0" mesh="" flag=""/>
            <path id="shapePath10" d="M284.021,48.8915 C284.021,48.8915 293.9,48.1101 300.419,43.6204 C306.841,39.1971 310.887,33.8302 310.093,32.485 C308.775,30.9591 303.206,30.7728 296.069,35.6486 C287.842,41.2688 284.021,48.8915 284.021,48.8915 Z" style="stroke:none;fill-rule:evenodd;fill:#000000;fill-opacity:1;"/>
        </g>
        <g id="Shape11">
            <desc shapeID="11" type="0" basicInfo-basicType="0" basicInfo-roundedRectRadius="12" basicInfo-polygonSides="6" basicInfo-starPoints="5" bounding="rect(-15.3052,-8.92992,30.6105,17.8599)" text="" font-familyName="Apple 컬러 이모티콘" font-pixelSize="100" font-bold="0" font-underline="0" font-alignment="1" strokeStyle="0" markerStart="0" markerEnd="0" shadowEnabled="0" shadowOffsetX="0" shadowOffsetY="2" shadowBlur="4" shadowOpacity="160" blurEnabled="0" blurRadius="4" transform="matrix(1,0,0,1,259.148,40.8696)" pers-center="0,0" pers-size="0,0" pers-start="0,0" pers-end="0,0" locked="0" mesh="" flag=""/>
            <path id="shapePath11" d="M256.918,45.6881 C249.584,41.7054 242.87,35.2776 243.959,32.939 C244.971,30.7685 255.002,32.2353 261.96,36.3522 C269.081,40.5653 274.453,49.7892 274.453,49.7892 C274.453,49.7892 265.243,50.2089 256.918,45.6881 Z" style="stroke:none;fill-rule:evenodd;fill:#000000;fill-opacity:1;"/>
        </g>
        <g id="Shape12">
            <desc shapeID="12" type="0" basicInfo-basicType="0" basicInfo-roundedRectRadius="12" basicInfo-polygonSides="6" basicInfo-starPoints="5" bounding="rect(-17.0371,-12.4898,34.0743,24.9796)" text="" font-familyName="Apple 컬러 이모티콘" font-pixelSize="100" font-bold="0" font-underline="0" font-alignment="1" strokeStyle="0" markerStart="0" markerEnd="0" shadowEnabled="0" shadowOffsetX="0" shadowOffsetY="2" shadowBlur="4" shadowOpacity="160" blurEnabled="0" blurRadius="4" transform="matrix(1,0,0,1,365.99,35.0048)" pers-center="0,0" pers-size="0,0" pers-start="0,0" pers-end="0,0" locked="0" mesh="" flag=""/>
            <path id="shapePath12" d="M349.047,22.5156 C349.047,22.5156 348.953,47.3906 348.953,47.3906 C348.953,47.3906 362.666,47.5332 369.203,47.4844 C375.893,47.4345 383.358,44.933 383.016,34.0781 C382.696,23.9487 374.645,22.587 368.453,22.5469 C362.415,22.5077 349.047,22.5156 349.047,22.5156 Z" style="stroke:none;fill-rule:evenodd;fill:#000000;fill-opacity:1;"/>
        </g>
    </g>
</svg>
