<?xml version="1.0"?>
<svg version="1.1" xmlns="http://www.w3.org/2000/svg" xmlns:xlink="http://www.w3.org/1999/xlink" width="550" height="100">
    <desc iVinci="yes" version="4.6" gridStep="20" showGrid="no" snapToGrid="no" codePlatform="0"/>
    <g id="Layer1" name="Layer 1" opacity="1">
        <g id="Shape1">
            <desc shapeID="1" type="2" basicInfo-basicType="0" basicInfo-roundedRectRadius="12" basicInfo-polygonSides="6" basicInfo-starPoints="5" bounding="rect(-309.5,-86,619,172)" text="L A Z    P I C" font-familyName="Apple 컬러 이모티콘" font-pixelSize="100" font-bold="0" font-underline="0" font-alignment="1" strokeStyle="0" markerStart="0" markerEnd="0" shadowEnabled="0" shadowOffsetX="0" shadowOffsetY="2" shadowBlur="4" shadowOpacity="160" blurEnabled="0" blurRadius="4" transform="matrix(1,0,0,1,273.276,58.9131)" pers-center="0,0" pers-size="0,0" pers-start="0,0" pers-end="0,0" locked="0" mesh="" flag=""/>
            <path id="shapePath1" d="M2.9248,14.1846 L12.6416,14.1846 L12.6416,77.3682 L48.9697,77.3682 L48.9697,85.9131 L2.9248,85.9131 L2.9248,14.1846 M114.007,56.5186 L103.118,24.8291 L91.5459,56.5186 L114.007,56.5186 M98.04,14.1846 L109.026,14.1846 L135.052,85.9131 L124.407,85.9131 L117.132,64.4287 L88.7627,64.4287 L80.999,85.9131 L71.0381,85.9131 L98.04,14.1846 M160.868,77.8564 L204.862,22.7295 L164.091,22.7295 L164.091,14.1846 L217.362,14.1846 L217.362,22.5342 L173.124,77.3682 L217.362,77.3682 L217.362,85.9131 L160.868,85.9131 L160.868,77.8564 M339.321,14.1846 L371.597,14.1846 C377.977,14.1846 383.12,15.9831 387.026,19.5801 C390.933,23.1771 392.886,28.2308 392.886,34.7412 C392.886,40.3402 391.144,45.2148 387.661,49.3652 C384.178,53.5156 378.823,55.5908 371.597,55.5908 L349.038,55.5908 L349.038,85.9131 L339.321,85.9131 L339.321,14.1846 M377.212,24.0479 C375.063,23.0387 372.118,22.5342 368.374,22.5342 L349.038,22.5342 L349.038,47.3877 L368.374,47.3877 C372.736,47.3877 376.276,46.46 378.994,44.6045 C381.712,42.749 383.071,39.4775 383.071,34.79 C383.071,29.5166 381.118,25.9359 377.212,24.0479 M433.31,14.1846 L443.124,14.1846 L443.124,85.9131 L433.31,85.9131 L433.31,14.1846 M538.042,19.4092 C543.055,24.1943 545.838,29.6305 546.392,35.7178 L536.919,35.7178 C535.845,31.0954 533.704,27.4333 530.498,24.7314 C527.292,22.0296 522.791,20.6787 516.997,20.6787 C509.933,20.6787 504.229,23.1608 499.883,28.125 C495.537,33.0892 493.364,40.6982 493.364,50.9521 C493.364,59.3506 495.326,66.1621 499.248,71.3867 C503.171,76.6113 509.022,79.2236 516.802,79.2236 C523.963,79.2236 529.416,76.473 533.159,70.9717 C535.145,68.0745 536.626,64.266 537.603,59.5459 L547.075,59.5459 C546.229,67.098 543.429,73.4294 538.677,78.54 C532.98,84.6924 525.298,87.7686 515.63,87.7686 C507.297,87.7686 500.298,85.2458 494.634,80.2002 C487.179,73.527 483.452,63.2243 483.452,49.292 C483.452,38.7126 486.252,30.0374 491.851,23.2666 C497.905,15.9098 506.255,12.2314 516.899,12.2314 C525.981,12.2314 533.029,14.624 538.042,19.4092 Z" style="stroke:none;fill-rule:nonzero;fill:url(#linearGradientFill1);fill-opacity:1;"/><defs><linearGradient id="linearGradientFill1" gradientUnits="userSpaceOnUse" x1="339.605" y1="85.1648" x2="339.605" y2="12.2314"><stop offset="0" stop-color="#429542" stop-opacity="1"/><stop offset="1" stop-color="#83c45c" stop-opacity="1"/></linearGradient></defs>
        </g>
        <g id="Shape2">
            <desc shapeID="2" type="0" basicInfo-basicType="0" basicInfo-roundedRectRadius="12" basicInfo-polygonSides="6" basicInfo-starPoints="5" bounding="rect(-13.1187,-25.7192,26.2374,51.4384)" text="" font-familyName="Apple 컬러 이모티콘" font-pixelSize="100" font-bold="0" font-underline="0" font-alignment="1" strokeStyle="0" markerStart="0" markerEnd="0" shadowEnabled="0" shadowOffsetX="0" shadowOffsetY="2" shadowBlur="4" shadowOpacity="160" blurEnabled="0" blurRadius="4" transform="matrix(0.45689,-0.696555,0.696555,0.45689,262.617,33.2653)" pers-center="0,0" pers-size="0,0" pers-start="0,0" pers-end="0,0" locked="0" mesh="" flag=""/>
            <path id="shapePath2" d="M254.005,40.6856 C244.003,34.125 240.243,27.6514 244.019,22.5838 C248.078,17.137 258.208,16.3673 267.854,23.7277 C277.264,30.9079 280.118,46.2913 279.158,47.0946 C277.267,48.5764 264.007,47.2463 254.005,40.6856 Z" style="stroke:url(#linearGradientStroke2);stroke-width:9;stroke-linejoin:miter;stroke-miterlimit:2;stroke-linecap:round;fill:none;"/><defs><linearGradient id="linearGradientStroke2" gradientUnits="userSpaceOnUse" x1="267.47" y1="48.1358" x2="264.641" y2="19.244"><stop offset="0" stop-color="#5ca74c" stop-opacity="1"/><stop offset="1" stop-color="#daff9f" stop-opacity="1"/></linearGradient></defs>
        </g>
        <g id="Shape3">
            <desc shapeID="3" type="0" basicInfo-basicType="0" basicInfo-roundedRectRadius="12" basicInfo-polygonSides="6" basicInfo-starPoints="5" bounding="rect(-12.4001,-26.6783,24.8003,53.3565)" text="" font-familyName="Apple 컬러 이모티콘" font-pixelSize="100" font-bold="0" font-underline="0" font-alignment="1" strokeStyle="0" markerStart="0" markerEnd="0" shadowEnabled="0" shadowOffsetX="0" shadowOffsetY="2" shadowBlur="4" shadowOpacity="160" blurEnabled="0" blurRadius="4" transform="matrix(0.49606,0.657001,-0.646051,0.487793,296.744,33.3998)" pers-center="0,0" pers-size="0,0" pers-start="0,0" pers-end="0,0" locked="0" mesh="" flag=""/>
            <path id="shapePath3" d="M290.962,25.214 C299.395,17.2095 310.896,15.5357 314.267,20.7938 C318.241,26.9922 312.125,36.471 302.203,41.381 C291.778,46.5394 282.098,48.6212 280.243,47.3853 C280.532,45.7618 282.106,33.6208 290.962,25.214 Z" style="stroke:url(#linearGradientStroke3);stroke-width:8.5;stroke-linejoin:miter;stroke-miterlimit:2;stroke-linecap:round;fill:none;"/><defs><linearGradient id="linearGradientStroke3" gradientUnits="userSpaceOnUse" x1="267.47" y1="48.1358" x2="264.641" y2="19.244"><stop offset="0" stop-color="#5ca74c" stop-opacity="1"/><stop offset="1" stop-color="#daff9f" stop-opacity="1"/></linearGradient></defs>
        </g>
        <g id="Shape4">
            <desc shapeID="4" type="0" basicInfo-basicType="1" basicInfo-roundedRectRadius="12" basicInfo-polygonSides="6" basicInfo-starPoints="5" bounding="rect(-4.73837,-21.8304,9.47675,43.6608)" text="" font-familyName="Apple 컬러 이모티콘" font-pixelSize="100" font-bold="0" font-underline="0" font-alignment="1" strokeStyle="0" markerStart="0" markerEnd="0" shadowEnabled="0" shadowOffsetX="0" shadowOffsetY="2" shadowBlur="4" shadowOpacity="160" blurEnabled="0" blurRadius="4" transform="matrix(1,0,0,0.80541,279.319,67.5824)" pers-center="0,0" pers-size="0,0" pers-start="0,0" pers-end="0,0" locked="0" mesh="" flag=""/>
            <path id="shapePath4" d="M274.581,50 L284.058,50 L284.058,85.1648 L274.581,85.1648 L274.581,50 Z" style="stroke:none;fill-rule:evenodd;fill:url(#linearGradientFill4);fill-opacity:1;"/><defs><linearGradient id="linearGradientFill4" gradientUnits="userSpaceOnUse" x1="284.058" y1="85.1648" x2="284.058" y2="21.4391"><stop offset="0" stop-color="#469743" stop-opacity="1"/><stop offset="1" stop-color="#74b956" stop-opacity="1"/></linearGradient></defs>
        </g>
    </g>
</svg>
