<?xml version="1.0"?>
<svg version="1.1" xmlns="http://www.w3.org/2000/svg" xmlns:xlink="http://www.w3.org/1999/xlink" width="550" height="100">
    <desc iVinci="yes" version="4.6" gridStep="20" showGrid="no" snapToGrid="no" codePlatform="0"/>
    <g id="Layer1" name="Layer 1" visibility="hidden" opacity="1">
        <g id="Shape1">
            <desc shapeID="1" type="0" basicInfo-basicType="1" basicInfo-roundedRectRadius="12" basicInfo-polygonSides="6" basicInfo-starPoints="5" bounding="rect(-279.5,-54,559,108)" text="" font-familyName="Apple 컬러 이모티콘" font-pixelSize="100" font-bold="0" font-underline="0" font-alignment="1" strokeStyle="0" markerStart="0" markerEnd="0" shadowEnabled="0" shadowOffsetX="0" shadowOffsetY="2" shadowBlur="4" shadowOpacity="160" blurEnabled="0" blurRadius="4" transform="matrix(1,0,0,1,275,50.5)" pers-center="0,0" pers-size="0,0" pers-start="0,0" pers-end="0,0" locked="0" mesh="" flag=""/>
            <path id="shapePath1" d="M-4.5,-3.5 L554.5,-3.5 L554.5,104.5 L-4.5,104.5 L-4.5,-3.5 Z" style="stroke:none;fill-rule:evenodd;fill:#000000;fill-opacity:1;"/>
        </g>
    </g>
    <g id="Layer2" name="Layer 4" visibility="hidden" opacity="1">
        <g id="Shape2">
            <desc shapeID="2" type="0" basicInfo-basicType="0" basicInfo-roundedRectRadius="12" basicInfo-polygonSides="6" basicInfo-starPoints="5" bounding="rect(-271.267,-6.88982,542.534,13.7797)" text="" font-familyName="Apple 컬러 이모티콘" font-pixelSize="100" font-bold="0" font-underline="0" font-alignment="1" strokeStyle="0" markerStart="0" markerEnd="0" shadowEnabled="0" shadowOffsetX="0" shadowOffsetY="2" shadowBlur="4" shadowOpacity="160" blurEnabled="0" blurRadius="4" transform="matrix(1,0,0,1,278.634,88.1576)" pers-center="0,0" pers-size="0,0" pers-start="0,0" pers-end="0,0" locked="0" mesh="" flag=""/>
            <path id="shapePath2" d="M7.36658,93.5976 C7.36658,93.5976 187.607,81.5648 279.52,81.2721 C369.098,80.9869 549.901,95.0475 549.901,95.0475 C549.901,95.0475 369.4,84.8436 279.526,85.1298 C188.1,85.421 7.36658,93.5976 7.36658,93.5976 Z" style="stroke:none;fill-rule:evenodd;fill:url(#radialGradientFill2);fill-opacity:1;"/><defs><radialGradient id="radialGradientFill2" gradientUnits="userSpaceOnUse" cx="278.831" cy="84.2498" r="271.611" fx="271.016" fy="88.1576"><stop offset="0.00124594" stop-color="#4d9d48" stop-opacity="1"/><stop offset="1" stop-color="#1d3e1b" stop-opacity="1"/></radialGradient></defs>
        </g>
    </g>
    <g id="Layer3" name="Layer 2" opacity="1">
        <g id="Shape3">
            <desc shapeID="3" type="0" basicInfo-basicType="0" basicInfo-roundedRectRadius="12" basicInfo-polygonSides="6" basicInfo-starPoints="5" bounding="rect(-23.0625,-35.875,46.125,71.75)" text="" font-familyName="Apple 컬러 이모티콘" font-pixelSize="100" font-bold="0" font-underline="0" font-alignment="1" strokeStyle="0" markerStart="0" markerEnd="0" shadowEnabled="0" shadowOffsetX="0" shadowOffsetY="2" shadowBlur="4" shadowOpacity="160" blurEnabled="0" blurRadius="4" transform="matrix(1,0,0,1,25.9844,50.0659)" pers-center="0,0" pers-size="0,0" pers-start="0,0" pers-end="0,0" locked="0" mesh="" flag=""/>
            <path id="shapePath3" d="M2.92188,85.9096 C2.92188,85.9096 2.95313,14.2221 2.95313,14.2221 C2.95313,14.2221 12.6406,14.1909 12.6406,14.1909 C12.6406,14.1909 12.6094,77.4096 12.6094,77.4096 C12.6094,77.4096 49.0469,77.4096 49.0469,77.4096 C49.0469,77.4096 49.0156,85.9409 49.0156,85.9409 C49.0156,85.9409 2.92188,85.9096 2.92188,85.9096 Z" style="stroke:none;fill-rule:evenodd;fill:url(#linearGradientFill3);fill-opacity:1;"/><defs><linearGradient id="linearGradientFill3" gradientUnits="userSpaceOnUse" x1="91.4864" y1="84.5878" x2="92.7269" y2="12.8949"><stop offset="0" stop-color="#439642" stop-opacity="1"/><stop offset="1" stop-color="#7cbf59" stop-opacity="1"/></linearGradient></defs>
        </g>
        <g id="Shape4">
            <desc shapeID="4" type="0" basicInfo-basicType="0" basicInfo-roundedRectRadius="12" basicInfo-polygonSides="6" basicInfo-starPoints="5" bounding="rect(-32.1391,-35.8793,64.2784,71.7586)" text="" font-familyName="Apple 컬러 이모티콘" font-pixelSize="100" font-bold="0" font-underline="0" font-alignment="1" strokeStyle="0" markerStart="0" markerEnd="0" shadowEnabled="0" shadowOffsetX="0" shadowOffsetY="2" shadowBlur="4" shadowOpacity="160" blurEnabled="0" blurRadius="4" transform="matrix(1,0,0,1,103.155,50.0824)" pers-center="0,0" pers-size="0,0" pers-start="0,0" pers-end="0,0" locked="0" mesh="" flag=""/>
            <path id="shapePath4" d="M71.0156,85.9219 C71.0156,85.9219 80.9531,85.9531 80.9531,85.9531 C80.9531,85.9531 88.7656,64.4219 88.7656,64.4219 C88.7656,64.4219 117.127,64.5005 117.127,64.5005 C117.127,64.5005 124.423,85.9617 124.423,85.9617 C124.423,85.9617 135.294,85.9095 135.294,85.9095 C135.294,85.9095 108.984,14.2031 108.984,14.2031 C108.984,14.2031 98.0156,14.2344 98.0156,14.2344 C98.0156,14.2344 71.0156,85.9219 71.0156,85.9219 Z" style="stroke:none;fill-rule:evenodd;fill:url(#linearGradientFill4);fill-opacity:1;"/><defs><linearGradient id="linearGradientFill4" gradientUnits="userSpaceOnUse" x1="91.4859" y1="84.5878" x2="92.7264" y2="12.8949"><stop offset="0" stop-color="#439642" stop-opacity="1"/><stop offset="1" stop-color="#7cbf59" stop-opacity="1"/></linearGradient></defs>
        </g>
        <g id="Shape5">
            <desc shapeID="5" type="0" basicInfo-basicType="0" basicInfo-roundedRectRadius="12" basicInfo-polygonSides="6" basicInfo-starPoints="5" bounding="rect(-28.3435,-35.8827,56.687,71.7653)" text="" font-familyName="Apple 컬러 이모티콘" font-pixelSize="100" font-bold="0" font-underline="0" font-alignment="1" strokeStyle="0" markerStart="0" markerEnd="0" shadowEnabled="0" shadowOffsetX="0" shadowOffsetY="2" shadowBlur="4" shadowOpacity="160" blurEnabled="0" blurRadius="4" transform="matrix(1,0,0,1,189.173,50.0552)" pers-center="0,0" pers-size="0,0" pers-start="0,0" pers-end="0,0" locked="0" mesh="" flag=""/>
            <path id="shapePath5" d="M164.107,22.7386 C164.107,22.7386 204.703,22.8906 204.703,22.8906 C204.703,22.8906 160.829,77.8276 160.829,77.8276 C160.829,77.8276 160.938,85.9378 160.938,85.9378 C160.938,85.9378 217.516,85.9219 217.516,85.9219 C217.516,85.9219 217.453,77.3594 217.453,77.3594 C217.453,77.3594 173.055,77.4022 173.055,77.4022 C173.055,77.4022 217.325,22.6089 217.325,22.6089 C217.325,22.6089 217.318,14.1725 217.318,14.1725 C217.318,14.1725 164.085,14.1866 164.085,14.1866 C164.085,14.1866 164.107,22.7386 164.107,22.7386 Z" style="stroke:none;fill-rule:evenodd;fill:url(#linearGradientFill5);fill-opacity:1;"/><defs><linearGradient id="linearGradientFill5" gradientUnits="userSpaceOnUse" x1="91.4874" y1="84.5878" x2="92.7279" y2="12.8949"><stop offset="0" stop-color="#439642" stop-opacity="1"/><stop offset="1" stop-color="#7cbf59" stop-opacity="1"/></linearGradient></defs>
        </g>
        <g id="Shape6">
            <desc shapeID="6" type="0" basicInfo-basicType="0" basicInfo-roundedRectRadius="12" basicInfo-polygonSides="6" basicInfo-starPoints="5" bounding="rect(-26.7341,-35.8898,53.4681,71.7797)" text="" font-familyName="Apple 컬러 이모티콘" font-pixelSize="100" font-bold="0" font-underline="0" font-alignment="1" strokeStyle="0" markerStart="0" markerEnd="0" shadowEnabled="0" shadowOffsetX="0" shadowOffsetY="2" shadowBlur="4" shadowOpacity="160" blurEnabled="0" blurRadius="4" transform="matrix(1,0,0,1,366.093,50.0945)" pers-center="0,0" pers-size="0,0" pers-start="0,0" pers-end="0,0" locked="0" mesh="" flag=""/>
            <path id="shapePath6" d="M339.391,85.9844 C339.391,85.9844 349.016,85.9531 349.016,85.9531 C349.016,85.9531 349.234,55.7031 349.234,55.7031 C349.234,55.7031 364.583,55.5654 371.385,55.5894 C372.83,55.5675 392.772,56.0799 392.827,35.1325 C392.883,13.9527 373.705,14.3419 371.849,14.2047 C361.019,14.2288 339.359,14.2344 339.359,14.2344 C339.359,14.2344 339.391,85.9844 339.391,85.9844 Z" style="stroke:none;fill-rule:evenodd;fill:url(#linearGradientFill6);fill-opacity:1;"/><defs><linearGradient id="linearGradientFill6" gradientUnits="userSpaceOnUse" x1="91.4866" y1="84.5877" x2="92.7271" y2="12.8948"><stop offset="0" stop-color="#439642" stop-opacity="1"/><stop offset="1" stop-color="#7cbf59" stop-opacity="1"/></linearGradient></defs>
        </g>
        <g id="Shape7">
            <desc shapeID="7" type="0" basicInfo-basicType="0" basicInfo-roundedRectRadius="12" basicInfo-polygonSides="6" basicInfo-starPoints="5" bounding="rect(-4.81235,-35.828,9.62469,71.656)" text="" font-familyName="Apple 컬러 이모티콘" font-pixelSize="100" font-bold="0" font-underline="0" font-alignment="1" strokeStyle="0" markerStart="0" markerEnd="0" shadowEnabled="0" shadowOffsetX="0" shadowOffsetY="2" shadowBlur="4" shadowOpacity="160" blurEnabled="0" blurRadius="4" transform="matrix(1.0259,0,0,1.00044,438.235,50.0469)" pers-center="0,0" pers-size="0,0" pers-start="0,0" pers-end="0,0" locked="0" mesh="" flag=""/>
            <path id="shapePath7" d="M433.298,14.2031 C433.298,14.2031 443.172,14.2344 443.172,14.2344 C443.172,14.2344 443.172,85.8906 443.172,85.8906 C443.172,85.8906 433.33,85.8281 433.33,85.8281 C433.33,85.8281 433.298,14.2031 433.298,14.2031 Z" style="stroke:none;fill-rule:evenodd;fill:url(#linearGradientFill7);fill-opacity:1;"/><defs><linearGradient id="linearGradientFill7" gradientUnits="userSpaceOnUse" x1="91.4866" y1="84.5876" x2="92.7271" y2="12.8949"><stop offset="0" stop-color="#439642" stop-opacity="1"/><stop offset="1" stop-color="#7cbf59" stop-opacity="1"/></linearGradient></defs>
        </g>
        <g id="Shape8">
            <desc shapeID="8" type="0" basicInfo-basicType="0" basicInfo-roundedRectRadius="12" basicInfo-polygonSides="6" basicInfo-starPoints="5" bounding="rect(-31.8157,-37.7506,63.6315,75.5012)" text="" font-familyName="Apple 컬러 이모티콘" font-pixelSize="100" font-bold="0" font-underline="0" font-alignment="1" strokeStyle="0" markerStart="0" markerEnd="0" shadowEnabled="0" shadowOffsetX="0" shadowOffsetY="2" shadowBlur="4" shadowOpacity="160" blurEnabled="0" blurRadius="4" transform="matrix(1,0,0,1,515.24,50.0004)" pers-center="0,0" pers-size="0,0" pers-start="0,0" pers-end="0,0" locked="0" mesh="" flag=""/>
            <path id="shapePath8" d="M547.056,59.6123 C547.056,59.6123 537.672,59.5495 537.672,59.5495 C537.672,59.5495 535.634,79.5027 515.851,79.2698 C503.526,79.1248 493.258,71.5613 493.418,49.2377 C493.512,36.2228 498.469,20.8722 516.721,20.5621 C534.648,20.2576 537.159,35.6664 537.159,35.6664 C537.159,35.6664 546.641,35.6768 546.641,35.6768 C546.641,35.6768 544.304,12.3155 517.021,12.2499 C493.361,12.1931 483.18,31.5549 483.429,49.9756 C483.681,68.6184 492.117,87.6902 514.979,87.7508 C547.06,87.8359 547.056,59.6123 547.056,59.6123 Z" style="stroke:none;fill-rule:evenodd;fill:url(#linearGradientFill8);fill-opacity:1;"/><defs><linearGradient id="linearGradientFill8" gradientUnits="userSpaceOnUse" x1="91.4868" y1="84.5878" x2="92.7274" y2="12.8949"><stop offset="0" stop-color="#439642" stop-opacity="1"/><stop offset="1" stop-color="#7cbf59" stop-opacity="1"/></linearGradient></defs>
        </g>
        <g id="Shape9">
            <desc shapeID="9" type="0" basicInfo-basicType="0" basicInfo-roundedRectRadius="12" basicInfo-polygonSides="6" basicInfo-starPoints="5" bounding="rect(-40.054,-30.5114,80.108,61.0228)" text="" font-familyName="Apple 컬러 이모티콘" font-pixelSize="100" font-bold="0" font-underline="0" font-alignment="1" strokeStyle="0" markerStart="0" markerEnd="0" shadowEnabled="0" shadowOffsetX="0" shadowOffsetY="2" shadowBlur="4" shadowOpacity="160" blurEnabled="0" blurRadius="4" transform="matrix(1,0,0,1,278.817,54.6292)" pers-center="0,0" pers-size="0,0" pers-start="0,0" pers-end="0,0" locked="0" mesh="" flag=""/>
            <path id="shapePath9" d="M274.609,85.1406 C274.609,85.1406 283.984,85.1094 283.984,85.1094 C283.984,85.1094 284.109,59.3281 284.109,59.3281 C284.109,59.3281 299.279,55.7317 306.992,50.6064 C314.542,45.5891 322.262,35.6228 317.301,28.1373 C312.789,21.3289 299.973,24.1885 291.825,29.196 C284.522,33.6839 280.404,42.7525 280.404,42.7525 C280.404,42.7525 275.573,31.6902 266.161,27.9206 C257.567,24.4787 244.628,22.0725 240.146,30.1072 C234.991,39.3455 245.372,48.132 252.781,52.5181 C261.106,57.4471 274.516,59.0781 274.516,59.0781 C274.516,59.0781 274.609,85.1406 274.609,85.1406 Z" style="stroke:none;fill-rule:evenodd;fill:url(#linearGradientFill9);fill-opacity:1;"/><defs><linearGradient id="linearGradientFill9" gradientUnits="userSpaceOnUse" x1="256.477" y1="86.6553" x2="256.89" y2="24.8866"><stop offset="0" stop-color="#439642" stop-opacity="1"/><stop offset="1" stop-color="#c8f293" stop-opacity="1"/></linearGradient></defs>
        </g>
    </g>
    <g id="Layer4" name="Layer 3" opacity="1">
        <g id="Shape10">
            <desc shapeID="10" type="0" basicInfo-basicType="0" basicInfo-roundedRectRadius="12" basicInfo-polygonSides="6" basicInfo-starPoints="5" bounding="rect(-11.2969,-15.8594,22.5939,31.7188)" text="" font-familyName="Apple 컬러 이모티콘" font-pixelSize="100" font-bold="0" font-underline="0" font-alignment="1" strokeStyle="0" markerStart="0" markerEnd="0" shadowEnabled="0" shadowOffsetX="0" shadowOffsetY="2" shadowBlur="4" shadowOpacity="160" blurEnabled="0" blurRadius="4" transform="matrix(1,0,0,1,102.75,40.6875)" pers-center="0,0" pers-size="0,0" pers-start="0,0" pers-end="0,0" locked="0" mesh="" flag=""/>
            <path id="shapePath10" d="M91.4531,56.5469 C91.4531,56.5469 114.047,56.5469 114.047,56.5469 C114.047,56.5469 103.109,24.8281 103.109,24.8281 C103.109,24.8281 91.4531,56.5469 91.4531,56.5469 Z" style="stroke:none;fill-rule:evenodd;fill:#000000;fill-opacity:1;"/>
        </g>
        <g id="Shape11">
            <desc shapeID="11" type="0" basicInfo-basicType="0" basicInfo-roundedRectRadius="12" basicInfo-polygonSides="6" basicInfo-starPoints="5" bounding="rect(-17.0371,-12.4898,34.0743,24.9796)" text="" font-familyName="Apple 컬러 이모티콘" font-pixelSize="100" font-bold="0" font-underline="0" font-alignment="1" strokeStyle="0" markerStart="0" markerEnd="0" shadowEnabled="0" shadowOffsetX="0" shadowOffsetY="2" shadowBlur="4" shadowOpacity="160" blurEnabled="0" blurRadius="4" transform="matrix(1,0,0,1,365.99,35.0048)" pers-center="0,0" pers-size="0,0" pers-start="0,0" pers-end="0,0" locked="0" mesh="" flag=""/>
            <path id="shapePath11" d="M349.047,22.5156 C349.047,22.5156 348.953,47.3906 348.953,47.3906 C348.953,47.3906 362.666,47.5332 369.203,47.4844 C375.893,47.4345 383.358,44.933 383.016,34.0781 C382.696,23.9487 374.645,22.587 368.453,22.5469 C362.415,22.5077 349.047,22.5156 349.047,22.5156 Z" style="stroke:none;fill-rule:evenodd;fill:#000000;fill-opacity:1;"/>
        </g>
        <g id="Shape12">
            <desc shapeID="12" type="0" basicInfo-basicType="0" basicInfo-roundedRectRadius="12" basicInfo-polygonSides="6" basicInfo-starPoints="5" bounding="rect(-11.5891,-9.8762,23.1782,19.7524)" text="" font-familyName="Apple 컬러 이모티콘" font-pixelSize="100" font-bold="0" font-underline="0" font-alignment="1" strokeStyle="0" markerStart="0" markerEnd="0" shadowEnabled="0" shadowOffsetX="0" shadowOffsetY="2" shadowBlur="4" shadowOpacity="160" blurEnabled="0" blurRadius="4" transform="matrix(1.06802,0,0,1.09661,295.6,40.0838)" pers-center="0,0" pers-size="0,0" pers-start="0,0" pers-end="0,0" locked="0" mesh="" flag=""/>
            <path id="shapePath12" d="M283.223,50.9141 C283.223,50.9141 285.114,39.7439 295.696,32.9352 C301.823,28.993 306.708,28.2075 307.677,30.6227 C308.912,33.7037 306.451,34.9155 298.296,38.5348 C287.416,43.3635 283.223,50.9141 283.223,50.9141 Z" style="stroke:none;fill-rule:evenodd;fill:#000000;fill-opacity:1;"/>
        </g>
        <g id="Shape13">
            <desc shapeID="13" type="0" basicInfo-basicType="0" basicInfo-roundedRectRadius="12" basicInfo-polygonSides="6" basicInfo-starPoints="5" bounding="rect(-11.8895,-9.17807,23.7791,18.3561)" text="" font-familyName="Apple 컬러 이모티콘" font-pixelSize="100" font-bold="0" font-underline="0" font-alignment="1" strokeStyle="0" markerStart="0" markerEnd="0" shadowEnabled="0" shadowOffsetX="0" shadowOffsetY="2" shadowBlur="4" shadowOpacity="160" blurEnabled="0" blurRadius="4" transform="matrix(1.02673,0,0,1.05936,264.385,40.4291)" pers-center="0,0" pers-size="0,0" pers-start="0,0" pers-end="0,0" locked="0" mesh="" flag=""/>
            <path id="shapePath13" d="M276.592,50.152 C276.592,50.152 272.368,39.0368 263.747,33.8646 C257.226,29.952 252.608,29.764 252.221,32.8054 C251.661,37.2152 256.547,36.4711 262.825,39.8142 C271.042,44.1907 276.592,50.152 276.592,50.152 Z" style="stroke:none;fill-rule:evenodd;fill:#000000;fill-opacity:1;"/>
        </g>
        <g id="Shape14">
            <desc shapeID="14" type="0" basicInfo-basicType="0" basicInfo-roundedRectRadius="12" basicInfo-polygonSides="6" basicInfo-starPoints="5" bounding="rect(0,0,0,0)" text="" font-familyName="Apple 컬러 이모티콘" font-pixelSize="100" font-bold="0" font-underline="0" font-alignment="1" strokeStyle="0" markerStart="0" markerEnd="0" shadowEnabled="0" shadowOffsetX="0" shadowOffsetY="2" shadowBlur="4" shadowOpacity="160" blurEnabled="0" blurRadius="4" transform="matrix(1,0,0,1,308.734,31.9844)" pers-center="0,0" pers-size="0,0" pers-start="0,0" pers-end="0,0" locked="0" mesh="" flag=""/>
            <path id="shapePath14" d="M308.734,31.9844 Z" style="stroke:none;fill-rule:evenodd;fill:#000000;fill-opacity:1;"/>
        </g>
        <g id="Shape15">
            <desc shapeID="15" type="0" basicInfo-basicType="0" basicInfo-roundedRectRadius="12" basicInfo-polygonSides="6" basicInfo-starPoints="5" bounding="rect(0,0,0,0)" text="" font-familyName="Apple 컬러 이모티콘" font-pixelSize="100" font-bold="0" font-underline="0" font-alignment="1" strokeStyle="0" markerStart="0" markerEnd="0" shadowEnabled="0" shadowOffsetX="0" shadowOffsetY="2" shadowBlur="4" shadowOpacity="160" blurEnabled="0" blurRadius="4" transform="matrix(1,0,0,1,309.109,31.3281)" pers-center="0,0" pers-size="0,0" pers-start="0,0" pers-end="0,0" locked="0" mesh="" flag=""/>
            <path id="shapePath15" d="M309.109,31.3281 Z" style="stroke:none;fill-rule:evenodd;fill:#000000;fill-opacity:1;"/>
        </g>
        <g id="Shape16">
            <desc shapeID="16" type="0" basicInfo-basicType="0" basicInfo-roundedRectRadius="12" basicInfo-polygonSides="6" basicInfo-starPoints="5" bounding="rect(0,0,0,0)" text="" font-familyName="Apple 컬러 이모티콘" font-pixelSize="100" font-bold="0" font-underline="0" font-alignment="1" strokeStyle="0" markerStart="0" markerEnd="0" shadowEnabled="0" shadowOffsetX="0" shadowOffsetY="2" shadowBlur="4" shadowOpacity="160" blurEnabled="0" blurRadius="4" transform="matrix(1,0,0,1,308.991,31.3307)" pers-center="0,0" pers-size="0,0" pers-start="0,0" pers-end="0,0" locked="0" mesh="" flag=""/>
            <path id="shapePath16" d="M308.991,31.3307 Z" style="stroke:none;fill-rule:evenodd;fill:#000000;fill-opacity:1;"/>
        </g>
        <g id="Shape17">
            <desc shapeID="17" type="0" basicInfo-basicType="0" basicInfo-roundedRectRadius="12" basicInfo-polygonSides="6" basicInfo-starPoints="5" bounding="rect(0,0,0,0)" text="" font-familyName="Apple 컬러 이모티콘" font-pixelSize="100" font-bold="0" font-underline="0" font-alignment="1" strokeStyle="0" markerStart="0" markerEnd="0" shadowEnabled="0" shadowOffsetX="0" shadowOffsetY="2" shadowBlur="4" shadowOpacity="160" blurEnabled="0" blurRadius="4" transform="matrix(1,0,0,1,311.834,33.1587)" pers-center="0,0" pers-size="0,0" pers-start="0,0" pers-end="0,0" locked="0" mesh="" flag=""/>
            <path id="shapePath17" d="M311.834,33.1587 Z" style="stroke:none;fill-rule:evenodd;fill:#000000;fill-opacity:1;"/>
        </g>
        <g id="Shape18">
            <desc shapeID="18" type="0" basicInfo-basicType="0" basicInfo-roundedRectRadius="12" basicInfo-polygonSides="6" basicInfo-starPoints="5" bounding="rect(0,0,0,0)" text="" font-familyName="Apple 컬러 이모티콘" font-pixelSize="100" font-bold="0" font-underline="0" font-alignment="1" strokeStyle="0" markerStart="0" markerEnd="0" shadowEnabled="0" shadowOffsetX="0" shadowOffsetY="2" shadowBlur="4" shadowOpacity="160" blurEnabled="0" blurRadius="4" transform="matrix(1,0,0,1,308.178,32.1431)" pers-center="0,0" pers-size="0,0" pers-start="0,0" pers-end="0,0" locked="0" mesh="" flag=""/>
            <path id="shapePath18" d="M308.178,32.1431 Z" style="stroke:none;fill-rule:evenodd;fill:#000000;fill-opacity:1;"/>
        </g>
        <g id="Shape19">
            <desc shapeID="19" type="0" basicInfo-basicType="0" basicInfo-roundedRectRadius="12" basicInfo-polygonSides="6" basicInfo-starPoints="5" bounding="rect(0,0,0,0)" text="" font-familyName="Apple 컬러 이모티콘" font-pixelSize="100" font-bold="0" font-underline="0" font-alignment="1" strokeStyle="0" markerStart="0" markerEnd="0" shadowEnabled="0" shadowOffsetX="0" shadowOffsetY="2" shadowBlur="4" shadowOpacity="160" blurEnabled="0" blurRadius="4" transform="matrix(1,0,0,1,261.199,48.9784)" pers-center="0,0" pers-size="0,0" pers-start="0,0" pers-end="0,0" locked="0" mesh="" flag=""/>
            <path id="shapePath19" d="M261.199,48.9784 Z" style="stroke:none;fill-rule:evenodd;fill:#000000;fill-opacity:1;"/>
        </g>
    </g>
</svg>
