<?xml version="1.0"?>
<svg version="1.1" xmlns="http://www.w3.org/2000/svg" xmlns:xlink="http://www.w3.org/1999/xlink" width="550" height="100">
    <desc iVinci="yes" version="4.6" gridStep="20" showGrid="no" snapToGrid="no" codePlatform="0"/>
    <g id="Layer1" name="Layer 1" visibility="hidden" opacity="1">
        <g id="Shape1">
            <desc shapeID="1" type="0" basicInfo-basicType="1" basicInfo-roundedRectRadius="12" basicInfo-polygonSides="6" basicInfo-starPoints="5" bounding="rect(-275.416,-51.1609,550.832,102.322)" text="" font-familyName="Apple 컬러 이모티콘" font-pixelSize="100" font-bold="0" font-underline="0" font-alignment="1" strokeStyle="0" markerStart="0" markerEnd="0" shadowEnabled="0" shadowOffsetX="0" shadowOffsetY="2" shadowBlur="4" shadowOpacity="160" blurEnabled="0" blurRadius="4" transform="matrix(1,0,0,1,275.843,49.8819)" pers-center="0,0" pers-size="0,0" pers-start="0,0" pers-end="0,0" locked="0" mesh="" flag=""/>
            <path id="shapePath1" d="M0.426331,-1.27902 L551.259,-1.27902 L551.259,101.043 L0.426331,101.043 L0.426331,-1.27902 Z" style="stroke:none;fill-rule:evenodd;fill:#617d8a;fill-opacity:1;"/>
        </g>
    </g>
    <g id="Layer2" name="Layer 2" opacity="1">
        <g id="Shape2">
            <desc shapeID="2" type="0" basicInfo-basicType="0" basicInfo-roundedRectRadius="12" basicInfo-polygonSides="6" basicInfo-starPoints="5" bounding="rect(-23.0625,-35.875,46.125,71.75)" text="" font-familyName="Apple 컬러 이모티콘" font-pixelSize="100" font-bold="0" font-underline="0" font-alignment="1" strokeStyle="0" markerStart="0" markerEnd="0" shadowEnabled="0" shadowOffsetX="0" shadowOffsetY="2" shadowBlur="4" shadowOpacity="160" blurEnabled="0" blurRadius="4" transform="matrix(1,0,0,1,25.9844,50.0659)" pers-center="0,0" pers-size="0,0" pers-start="0,0" pers-end="0,0" locked="0" mesh="" flag=""/>
            <path id="shapePath2" d="M2.92188,85.9096 C2.92188,85.9096 2.95313,14.2221 2.95313,14.2221 C2.95313,14.2221 12.6406,14.1909 12.6406,14.1909 C12.6406,14.1909 12.6094,77.4096 12.6094,77.4096 C12.6094,77.4096 49.0469,77.4096 49.0469,77.4096 C49.0469,77.4096 49.0156,85.9409 49.0156,85.9409 C49.0156,85.9409 2.92188,85.9096 2.92188,85.9096 Z" style="stroke:none;fill-rule:evenodd;fill:#ffffff;fill-opacity:1;"/>
        </g>
        <g id="Shape3">
            <desc shapeID="3" type="0" basicInfo-basicType="0" basicInfo-roundedRectRadius="12" basicInfo-polygonSides="6" basicInfo-starPoints="5" bounding="rect(-28.3435,-35.8827,56.687,71.7653)" text="" font-familyName="Apple 컬러 이모티콘" font-pixelSize="100" font-bold="0" font-underline="0" font-alignment="1" strokeStyle="0" markerStart="0" markerEnd="0" shadowEnabled="0" shadowOffsetX="0" shadowOffsetY="2" shadowBlur="4" shadowOpacity="160" blurEnabled="0" blurRadius="4" transform="matrix(1,0,0,1,189.173,50.0552)" pers-center="0,0" pers-size="0,0" pers-start="0,0" pers-end="0,0" locked="0" mesh="" flag=""/>
            <path id="shapePath3" d="M164.107,22.7386 C164.107,22.7386 204.703,22.8906 204.703,22.8906 C204.703,22.8906 160.829,77.8276 160.829,77.8276 C160.829,77.8276 160.938,85.9378 160.938,85.9378 C160.938,85.9378 217.516,85.9219 217.516,85.9219 C217.516,85.9219 217.453,77.3594 217.453,77.3594 C217.453,77.3594 173.055,77.4022 173.055,77.4022 C173.055,77.4022 217.325,22.6089 217.325,22.6089 C217.325,22.6089 217.318,14.1725 217.318,14.1725 C217.318,14.1725 164.085,14.1866 164.085,14.1866 C164.085,14.1866 164.107,22.7386 164.107,22.7386 Z" style="stroke:none;fill-rule:evenodd;fill:#ffffff;fill-opacity:1;"/>
        </g>
        <g id="Shape4">
            <desc shapeID="4" type="0" basicInfo-basicType="0" basicInfo-roundedRectRadius="12" basicInfo-polygonSides="6" basicInfo-starPoints="5" bounding="rect(-4.81235,-35.828,9.62469,71.656)" text="" font-familyName="Apple 컬러 이모티콘" font-pixelSize="100" font-bold="0" font-underline="0" font-alignment="1" strokeStyle="0" markerStart="0" markerEnd="0" shadowEnabled="0" shadowOffsetX="0" shadowOffsetY="2" shadowBlur="4" shadowOpacity="160" blurEnabled="0" blurRadius="4" transform="matrix(1.0259,0,0,1.00044,438.235,50.0469)" pers-center="0,0" pers-size="0,0" pers-start="0,0" pers-end="0,0" locked="0" mesh="" flag=""/>
            <path id="shapePath4" d="M433.298,14.2031 C433.298,14.2031 443.172,14.2344 443.172,14.2344 C443.172,14.2344 443.172,85.8906 443.172,85.8906 C443.172,85.8906 433.33,85.8281 433.33,85.8281 C433.33,85.8281 433.298,14.2031 433.298,14.2031 Z" style="stroke:none;fill-rule:evenodd;fill:#ffffff;fill-opacity:1;"/>
        </g>
        <g id="Shape5">
            <desc shapeID="5" type="0" basicInfo-basicType="0" basicInfo-roundedRectRadius="12" basicInfo-polygonSides="6" basicInfo-starPoints="5" bounding="rect(-31.8157,-37.7506,63.6315,75.5012)" text="" font-familyName="Apple 컬러 이모티콘" font-pixelSize="100" font-bold="0" font-underline="0" font-alignment="1" strokeStyle="0" markerStart="0" markerEnd="0" shadowEnabled="0" shadowOffsetX="0" shadowOffsetY="2" shadowBlur="4" shadowOpacity="160" blurEnabled="0" blurRadius="4" transform="matrix(1,0,0,1,515.24,50.0004)" pers-center="0,0" pers-size="0,0" pers-start="0,0" pers-end="0,0" locked="0" mesh="" flag=""/>
            <path id="shapePath5" d="M547.056,59.6123 C547.056,59.6123 537.672,59.5495 537.672,59.5495 C537.672,59.5495 535.634,79.5027 515.851,79.2698 C503.526,79.1248 493.258,71.5613 493.418,49.2377 C493.512,36.2228 498.469,20.8722 516.721,20.5621 C534.648,20.2576 537.159,35.6664 537.159,35.6664 C537.159,35.6664 546.641,35.6768 546.641,35.6768 C546.641,35.6768 544.304,12.3155 517.021,12.2499 C493.361,12.1931 483.18,31.5549 483.429,49.9756 C483.681,68.6184 492.117,87.6902 514.979,87.7508 C547.06,87.8359 547.056,59.6123 547.056,59.6123 Z" style="stroke:none;fill-rule:evenodd;fill:#ffffff;fill-opacity:1;"/>
        </g>
        <g id="Shape6">
            <desc shapeID="6" type="0" basicInfo-basicType="0" basicInfo-roundedRectRadius="12" basicInfo-polygonSides="6" basicInfo-starPoints="5" bounding="rect(-32.25,-36,64.5,72)" text="" font-familyName="Apple 컬러 이모티콘" font-pixelSize="100" font-bold="0" font-underline="0" font-alignment="1" strokeStyle="0" markerStart="0" markerEnd="0" shadowEnabled="0" shadowOffsetX="0" shadowOffsetY="2" shadowBlur="4" shadowOpacity="160" blurEnabled="0" blurRadius="4" transform="matrix(1,0,0,1,103.25,50)" pers-center="0,0" pers-size="0,0" pers-start="0,0" pers-end="0,0" locked="0" mesh="" flag=""/>
            <path id="shapePath6" d="M71,86 L81,86 L89,64.5 L117,64.5 L124.5,86 L135.5,86 L109,14 L98,14 L71,86 M91.5,56.5 L114,56.5 L103,25 L91.5,56.5 Z" style="stroke:none;fill-rule:evenodd;fill:#ffffff;fill-opacity:1;"/>
        </g>
        <g id="Shape7">
            <desc shapeID="7" type="0" basicInfo-basicType="0" basicInfo-roundedRectRadius="12" basicInfo-polygonSides="6" basicInfo-starPoints="5" bounding="rect(-40.1789,-30.4548,80.3578,60.9097)" text="" font-familyName="Apple 컬러 이모티콘" font-pixelSize="100" font-bold="0" font-underline="0" font-alignment="1" strokeStyle="0" markerStart="0" markerEnd="0" shadowEnabled="0" shadowOffsetX="0" shadowOffsetY="2" shadowBlur="4" shadowOpacity="160" blurEnabled="0" blurRadius="4" transform="matrix(1,0,0,1,278.878,54.5452)" pers-center="0,0" pers-size="0,0" pers-start="0,0" pers-end="0,0" locked="0" mesh="" flag=""/>
            <path id="shapePath7" d="M274.5,85 L284,85 L284,59.5 C284,59.5 299.5,55.5 307,50.5 C314.5,45.5 322.5,35.5 317.5,28 C313,21.5 300,24 292,29 C284.5,33.5 280.5,43 280.5,43 C280.5,43 275.5,31.5 266,28 C257.5,24.5 244.5,22 240,30 C235,39.5 245.5,48 253,52.5 C261,57.5 274.5,59 274.5,59 L274.5,85 M283,51 C283,51 285,39.5 295.5,33 C302,29 306.5,28 307.5,30.5 C309,33.5 306.5,35 298.5,38.5 C287.5,43.5 283,51 283,51 M276.5,50 C276.5,50 272.5,39 263.5,34 C257,30 252.5,30 252,33 C251.5,37 256.5,36.5 263,40 C271,44 276.5,50 276.5,50 Z" style="stroke:none;fill-rule:evenodd;fill:#ffffff;fill-opacity:1;"/>
        </g>
        <g id="Shape8">
            <desc shapeID="8" type="0" basicInfo-basicType="0" basicInfo-roundedRectRadius="12" basicInfo-polygonSides="6" basicInfo-starPoints="5" bounding="rect(-26.75,-36,53.5,72)" text="" font-familyName="Apple 컬러 이모티콘" font-pixelSize="100" font-bold="0" font-underline="0" font-alignment="1" strokeStyle="0" markerStart="0" markerEnd="0" shadowEnabled="0" shadowOffsetX="0" shadowOffsetY="2" shadowBlur="4" shadowOpacity="160" blurEnabled="0" blurRadius="4" transform="matrix(1,0,0,1,366.25,50)" pers-center="0,0" pers-size="0,0" pers-start="0,0" pers-end="0,0" locked="0" mesh="" flag=""/>
            <path id="shapePath8" d="M339.5,86 L349,86 L349,55.5 C349,55.5 364.5,55.5 371.5,55.5 C373,55.5 393,56 393,35 C393,14 373.5,14.5 372,14 C361,14 339.5,14 339.5,14 L339.5,86 M349,22.5 L349,47.5 C349,47.5 362.5,47.5 369,47.5 C376,47.5 383.5,45 383,34 C382.5,24 374.5,22.5 368.5,22.5 C362.5,22.5 349,22.5 349,22.5 Z" style="stroke:none;fill-rule:evenodd;fill:#ffffff;fill-opacity:1;"/>
        </g>
    </g>
</svg>
