<?xml version="1.0"?>
<svg version="1.1" xmlns="http://www.w3.org/2000/svg" xmlns:xlink="http://www.w3.org/1999/xlink" width="550" height="100">
    <desc iVinci="yes" version="4.6" gridStep="20" showGrid="no" snapToGrid="no" codePlatform="0"/>
    <g id="Layer1" name="Layer 2" opacity="1">
        <g id="Shape1">
            <desc shapeID="1" type="0" basicInfo-basicType="0" basicInfo-roundedRectRadius="12" basicInfo-polygonSides="6" basicInfo-starPoints="5" bounding="rect(-23.0625,-35.875,46.125,71.75)" text="" font-familyName="Apple 컬러 이모티콘" font-pixelSize="100" font-bold="0" font-underline="0" font-alignment="1" strokeStyle="0" markerStart="0" markerEnd="0" shadowEnabled="0" shadowOffsetX="0" shadowOffsetY="2" shadowBlur="4" shadowOpacity="160" blurEnabled="0" blurRadius="4" transform="matrix(1,0,0,1,25.9844,50.0659)" pers-center="0,0" pers-size="0,0" pers-start="0,0" pers-end="0,0" locked="0" mesh="" flag=""/>
            <path id="shapePath1" d="M2.92188,85.9096 C2.92188,85.9096 2.95313,14.2221 2.95313,14.2221 C2.95313,14.2221 12.6406,14.1909 12.6406,14.1909 C12.6406,14.1909 12.6094,77.4096 12.6094,77.4096 C12.6094,77.4096 49.0469,77.4096 49.0469,77.4096 C49.0469,77.4096 49.0156,85.9409 49.0156,85.9409 C49.0156,85.9409 2.92188,85.9096 2.92188,85.9096 Z" style="stroke:none;fill-rule:evenodd;fill:url(#linearGradientFill1);fill-opacity:1;"/><defs><linearGradient id="linearGradientFill1" gradientUnits="userSpaceOnUse" x1="91.4864" y1="84.5878" x2="92.7269" y2="12.8949"><stop offset="0" stop-color="#439642" stop-opacity="1"/><stop offset="1" stop-color="#7cbf59" stop-opacity="1"/></linearGradient></defs>
        </g>
        <g id="Shape2">
            <desc shapeID="2" type="0" basicInfo-basicType="0" basicInfo-roundedRectRadius="12" basicInfo-polygonSides="6" basicInfo-starPoints="5" bounding="rect(-32.1392,-35.8793,64.2785,71.7586)" text="" font-familyName="Apple 컬러 이모티콘" font-pixelSize="100" font-bold="0" font-underline="0" font-alignment="1" strokeStyle="0" markerStart="0" markerEnd="0" shadowEnabled="0" shadowOffsetX="0" shadowOffsetY="2" shadowBlur="4" shadowOpacity="160" blurEnabled="0" blurRadius="4" transform="matrix(1,0,0,1,103.155,50.0824)" pers-center="0,0" pers-size="0,0" pers-start="0,0" pers-end="0,0" locked="0" mesh="" flag=""/>
            <path id="shapePath2" d="M71.0156,85.9219 C71.0156,85.9219 80.9531,85.9531 80.9531,85.9531 C80.9531,85.9531 88.7656,64.4219 88.7656,64.4219 C88.7656,64.4219 117.127,64.5005 117.127,64.5005 C117.127,64.5005 124.423,85.9617 124.423,85.9617 C124.423,85.9617 135.294,85.9095 135.294,85.9095 C135.294,85.9095 108.984,14.2031 108.984,14.2031 C108.984,14.2031 98.0156,14.2344 98.0156,14.2344 C98.0156,14.2344 71.0156,85.9219 71.0156,85.9219 Z" style="stroke:none;fill-rule:evenodd;fill:url(#linearGradientFill2);fill-opacity:1;"/><defs><linearGradient id="linearGradientFill2" gradientUnits="userSpaceOnUse" x1="91.4864" y1="84.5878" x2="92.7269" y2="12.8949"><stop offset="0" stop-color="#439642" stop-opacity="1"/><stop offset="1" stop-color="#7cbf59" stop-opacity="1"/></linearGradient></defs>
        </g>
        <g id="Shape3">
            <desc shapeID="3" type="0" basicInfo-basicType="0" basicInfo-roundedRectRadius="12" basicInfo-polygonSides="6" basicInfo-starPoints="5" bounding="rect(-28.3431,-35.8827,56.6863,71.7653)" text="" font-familyName="Apple 컬러 이모티콘" font-pixelSize="100" font-bold="0" font-underline="0" font-alignment="1" strokeStyle="0" markerStart="0" markerEnd="0" shadowEnabled="0" shadowOffsetX="0" shadowOffsetY="2" shadowBlur="4" shadowOpacity="160" blurEnabled="0" blurRadius="4" transform="matrix(1,0,0,1,189.172,50.0552)" pers-center="0,0" pers-size="0,0" pers-start="0,0" pers-end="0,0" locked="0" mesh="" flag=""/>
            <path id="shapePath3" d="M164.107,22.7386 C164.107,22.7386 204.703,22.8906 204.703,22.8906 C204.703,22.8906 160.829,77.8276 160.829,77.8276 C160.829,77.8276 160.938,85.9378 160.938,85.9378 C160.938,85.9378 217.516,85.9219 217.516,85.9219 C217.516,85.9219 217.453,77.3594 217.453,77.3594 C217.453,77.3594 173.055,77.4022 173.055,77.4022 C173.055,77.4022 217.325,22.6089 217.325,22.6089 C217.325,22.6089 217.318,14.1725 217.318,14.1725 C217.318,14.1725 164.085,14.1866 164.085,14.1866 C164.085,14.1866 164.107,22.7386 164.107,22.7386 Z" style="stroke:none;fill-rule:evenodd;fill:url(#linearGradientFill3);fill-opacity:1;"/><defs><linearGradient id="linearGradientFill3" gradientUnits="userSpaceOnUse" x1="91.4864" y1="84.5878" x2="92.7269" y2="12.8949"><stop offset="0" stop-color="#439642" stop-opacity="1"/><stop offset="1" stop-color="#7cbf59" stop-opacity="1"/></linearGradient></defs>
        </g>
        <g id="Shape4">
            <desc shapeID="4" type="0" basicInfo-basicType="0" basicInfo-roundedRectRadius="12" basicInfo-polygonSides="6" basicInfo-starPoints="5" bounding="rect(-26.734,-35.8898,53.468,71.7796)" text="" font-familyName="Apple 컬러 이모티콘" font-pixelSize="100" font-bold="0" font-underline="0" font-alignment="1" strokeStyle="0" markerStart="0" markerEnd="0" shadowEnabled="0" shadowOffsetX="0" shadowOffsetY="2" shadowBlur="4" shadowOpacity="160" blurEnabled="0" blurRadius="4" transform="matrix(1,0,0,1,366.093,50.0946)" pers-center="0,0" pers-size="0,0" pers-start="0,0" pers-end="0,0" locked="0" mesh="" flag=""/>
            <path id="shapePath4" d="M339.391,85.9844 C339.391,85.9844 349.016,85.9531 349.016,85.9531 C349.016,85.9531 349.234,55.7031 349.234,55.7031 C349.234,55.7031 364.583,55.5654 371.385,55.5894 C372.83,55.5675 392.772,56.0799 392.827,35.1325 C392.883,13.9527 373.705,14.3419 371.849,14.2047 C361.019,14.2288 339.359,14.2344 339.359,14.2344 C339.359,14.2344 339.391,85.9844 339.391,85.9844 Z" style="stroke:none;fill-rule:evenodd;fill:url(#linearGradientFill4);fill-opacity:1;"/><defs><linearGradient id="linearGradientFill4" gradientUnits="userSpaceOnUse" x1="91.4864" y1="84.5878" x2="92.7269" y2="12.8949"><stop offset="0" stop-color="#439642" stop-opacity="1"/><stop offset="1" stop-color="#7cbf59" stop-opacity="1"/></linearGradient></defs>
        </g>
        <g id="Shape5">
            <desc shapeID="5" type="0" basicInfo-basicType="0" basicInfo-roundedRectRadius="12" basicInfo-polygonSides="6" basicInfo-starPoints="5" bounding="rect(-4.8125,-35.8281,9.625,71.6562)" text="" font-familyName="Apple 컬러 이모티콘" font-pixelSize="100" font-bold="0" font-underline="0" font-alignment="1" strokeStyle="0" markerStart="0" markerEnd="0" shadowEnabled="0" shadowOffsetX="0" shadowOffsetY="2" shadowBlur="4" shadowOpacity="160" blurEnabled="0" blurRadius="4" transform="matrix(1.0259,0,0,1.00044,438.235,50.0469)" pers-center="0,0" pers-size="0,0" pers-start="0,0" pers-end="0,0" locked="0" mesh="" flag=""/>
            <path id="shapePath5" d="M433.298,14.2031 C433.298,14.2031 443.172,14.2344 443.172,14.2344 C443.172,14.2344 443.172,85.8906 443.172,85.8906 C443.172,85.8906 433.33,85.8281 433.33,85.8281 C433.33,85.8281 433.298,14.2031 433.298,14.2031 Z" style="stroke:none;fill-rule:evenodd;fill:url(#linearGradientFill5);fill-opacity:1;"/><defs><linearGradient id="linearGradientFill5" gradientUnits="userSpaceOnUse" x1="91.4864" y1="84.5878" x2="92.7269" y2="12.8949"><stop offset="0" stop-color="#439642" stop-opacity="1"/><stop offset="1" stop-color="#7cbf59" stop-opacity="1"/></linearGradient></defs>
        </g>
        <g id="Shape6">
            <desc shapeID="6" type="0" basicInfo-basicType="0" basicInfo-roundedRectRadius="12" basicInfo-polygonSides="6" basicInfo-starPoints="5" bounding="rect(-31.8157,-37.7506,63.6315,75.5012)" text="" font-familyName="Apple 컬러 이모티콘" font-pixelSize="100" font-bold="0" font-underline="0" font-alignment="1" strokeStyle="0" markerStart="0" markerEnd="0" shadowEnabled="0" shadowOffsetX="0" shadowOffsetY="2" shadowBlur="4" shadowOpacity="160" blurEnabled="0" blurRadius="4" transform="matrix(1,0,0,1,515.24,50.0004)" pers-center="0,0" pers-size="0,0" pers-start="0,0" pers-end="0,0" locked="0" mesh="" flag=""/>
            <path id="shapePath6" d="M547.056,59.6123 C547.056,59.6123 537.672,59.5495 537.672,59.5495 C537.672,59.5495 535.634,79.5027 515.851,79.2698 C503.526,79.1248 493.258,71.5613 493.418,49.2377 C493.512,36.2228 498.469,20.8722 516.721,20.5621 C534.648,20.2576 537.159,35.6664 537.159,35.6664 C537.159,35.6664 546.641,35.6768 546.641,35.6768 C546.641,35.6768 544.304,12.3155 517.021,12.2499 C493.361,12.1931 483.18,31.5549 483.429,49.9756 C483.681,68.6184 492.117,87.6902 514.979,87.7508 C547.06,87.8359 547.056,59.6123 547.056,59.6123 Z" style="stroke:none;fill-rule:evenodd;fill:url(#linearGradientFill6);fill-opacity:1;"/><defs><linearGradient id="linearGradientFill6" gradientUnits="userSpaceOnUse" x1="91.4864" y1="84.5878" x2="92.7269" y2="12.8949"><stop offset="0" stop-color="#439642" stop-opacity="1"/><stop offset="1" stop-color="#7cbf59" stop-opacity="1"/></linearGradient></defs>
        </g>
        <g id="Shape7">
            <desc shapeID="7" type="0" basicInfo-basicType="0" basicInfo-roundedRectRadius="12" basicInfo-polygonSides="6" basicInfo-starPoints="5" bounding="rect(-40.0541,-30.5114,80.1081,61.0227)" text="" font-familyName="Apple 컬러 이모티콘" font-pixelSize="100" font-bold="0" font-underline="0" font-alignment="1" strokeStyle="0" markerStart="0" markerEnd="0" shadowEnabled="0" shadowOffsetX="0" shadowOffsetY="2" shadowBlur="4" shadowOpacity="160" blurEnabled="0" blurRadius="4" transform="matrix(1,0,0,1,278.817,54.6292)" pers-center="0,0" pers-size="0,0" pers-start="0,0" pers-end="0,0" locked="0" mesh="" flag=""/>
            <path id="shapePath7" d="M274.609,85.1406 C274.609,85.1406 283.984,85.1094 283.984,85.1094 C283.984,85.1094 284.109,59.3281 284.109,59.3281 C284.109,59.3281 299.279,55.7317 306.992,50.6064 C314.542,45.5891 322.262,35.6228 317.301,28.1373 C312.789,21.3289 299.973,24.1885 291.825,29.196 C284.522,33.6839 280.404,42.7525 280.404,42.7525 C280.404,42.7525 275.573,31.6902 266.161,27.9206 C257.567,24.4787 244.628,22.0725 240.146,30.1072 C234.991,39.3455 245.372,48.132 252.781,52.5181 C261.106,57.4471 274.516,59.0781 274.516,59.0781 C274.516,59.0781 274.609,85.1406 274.609,85.1406 Z" style="stroke:none;fill-rule:evenodd;fill:url(#linearGradientFill7);fill-opacity:1;"/><defs><linearGradient id="linearGradientFill7" gradientUnits="userSpaceOnUse" x1="256.477" y1="86.6553" x2="256.89" y2="24.8866"><stop offset="0" stop-color="#439642" stop-opacity="1"/><stop offset="1" stop-color="#c8f293" stop-opacity="1"/></linearGradient></defs>
        </g>
    </g>
    <g id="Layer2" name="Layer 3" opacity="1">
        <g id="Shape8">
            <desc shapeID="8" type="0" basicInfo-basicType="0" basicInfo-roundedRectRadius="12" basicInfo-polygonSides="6" basicInfo-starPoints="5" bounding="rect(-11.2969,-15.8594,22.5938,31.7188)" text="" font-familyName="Apple 컬러 이모티콘" font-pixelSize="100" font-bold="0" font-underline="0" font-alignment="1" strokeStyle="0" markerStart="0" markerEnd="0" shadowEnabled="0" shadowOffsetX="0" shadowOffsetY="2" shadowBlur="4" shadowOpacity="160" blurEnabled="0" blurRadius="4" transform="matrix(1,0,0,1,102.75,40.6875)" pers-center="0,0" pers-size="0,0" pers-start="0,0" pers-end="0,0" locked="0" mesh="" flag=""/>
            <path id="shapePath8" d="M91.4531,56.5469 C91.4531,56.5469 114.047,56.5469 114.047,56.5469 C114.047,56.5469 103.109,24.8281 103.109,24.8281 C103.109,24.8281 91.4531,56.5469 91.4531,56.5469 Z" style="stroke:none;fill-rule:evenodd;fill:#000000;fill-opacity:1;"/>
        </g>
        <g id="Shape9">
            <desc shapeID="9" type="0" basicInfo-basicType="0" basicInfo-roundedRectRadius="12" basicInfo-polygonSides="6" basicInfo-starPoints="5" bounding="rect(-12.2293,-9.4315,24.4587,18.863)" text="" font-familyName="Apple 컬러 이모티콘" font-pixelSize="100" font-bold="0" font-underline="0" font-alignment="1" strokeStyle="0" markerStart="0" markerEnd="0" shadowEnabled="0" shadowOffsetX="0" shadowOffsetY="2" shadowBlur="4" shadowOpacity="160" blurEnabled="0" blurRadius="4" transform="matrix(1,0,0,1,298.544,41.1847)" pers-center="0,0" pers-size="0,0" pers-start="0,0" pers-end="0,0" locked="0" mesh="" flag=""/>
            <path id="shapePath9" d="M286.315,50.6161 C286.315,50.6161 297.324,46.7422 302.14,43.735 C305.999,41.3253 312.764,36.7673 310.213,33.0857 C307.88,29.7189 300.064,33.4645 296.189,36.2493 C288.098,42.0632 286.315,50.6161 286.315,50.6161 Z" style="stroke:none;fill-rule:evenodd;fill:#000000;fill-opacity:1;"/>
        </g>
        <g id="Shape10">
            <desc shapeID="10" type="0" basicInfo-basicType="0" basicInfo-roundedRectRadius="12" basicInfo-polygonSides="6" basicInfo-starPoints="5" bounding="rect(-13.4764,-8.48468,26.9528,16.9694)" text="" font-familyName="Apple 컬러 이모티콘" font-pixelSize="100" font-bold="0" font-underline="0" font-alignment="1" strokeStyle="0" markerStart="0" markerEnd="0" shadowEnabled="0" shadowOffsetX="0" shadowOffsetY="2" shadowBlur="4" shadowOpacity="160" blurEnabled="0" blurRadius="4" transform="matrix(1,0,0,1,260.546,41.6118)" pers-center="0,0" pers-size="0,0" pers-start="0,0" pers-end="0,0" locked="0" mesh="" flag=""/>
            <path id="shapePath10" d="M259.799,45.9226 C255.373,43.8606 246.086,38.2984 247.155,35.9502 C249.272,31.3008 257.096,33.1793 262.636,35.9835 C270.885,40.1591 274.023,50.0965 274.023,50.0965 C274.023,50.0965 265.02,48.3546 259.799,45.9226 Z" style="stroke:none;fill-rule:evenodd;fill:#000000;fill-opacity:1;"/>
        </g>
        <g id="Shape11">
            <desc shapeID="11" type="0" basicInfo-basicType="0" basicInfo-roundedRectRadius="12" basicInfo-polygonSides="6" basicInfo-starPoints="5" bounding="rect(-17.0369,-12.4898,34.0739,24.9796)" text="" font-familyName="Apple 컬러 이모티콘" font-pixelSize="100" font-bold="0" font-underline="0" font-alignment="1" strokeStyle="0" markerStart="0" markerEnd="0" shadowEnabled="0" shadowOffsetX="0" shadowOffsetY="2" shadowBlur="4" shadowOpacity="160" blurEnabled="0" blurRadius="4" transform="matrix(1,0,0,1,365.99,35.0048)" pers-center="0,0" pers-size="0,0" pers-start="0,0" pers-end="0,0" locked="0" mesh="" flag=""/>
            <path id="shapePath11" d="M349.047,22.5156 C349.047,22.5156 348.953,47.3906 348.953,47.3906 C348.953,47.3906 362.666,47.5332 369.203,47.4844 C375.893,47.4345 383.358,44.933 383.016,34.0781 C382.696,23.9487 374.645,22.587 368.453,22.5469 C362.415,22.5077 349.047,22.5156 349.047,22.5156 Z" style="stroke:none;fill-rule:evenodd;fill:#000000;fill-opacity:1;"/>
        </g>
    </g>
</svg>
