<?xml version="1.0"?>
<svg version="1.1" xmlns="http://www.w3.org/2000/svg" xmlns:xlink="http://www.w3.org/1999/xlink" width="550" height="100">
    <desc iVinci="yes" version="4.6" gridStep="20" showGrid="no" snapToGrid="no" codePlatform="0"/>
    <g id="Layer1" name="Layer 1" opacity="1">
        <g id="Shape1">
            <desc shapeID="1" type="0" basicInfo-basicType="1" basicInfo-roundedRectRadius="12" basicInfo-polygonSides="6" basicInfo-starPoints="5" bounding="rect(-279.5,-54,559,108)" text="" font-familyName="Apple 컬러 이모티콘" font-pixelSize="100" font-bold="0" font-underline="0" font-alignment="1" strokeStyle="0" markerStart="0" markerEnd="0" shadowEnabled="0" shadowOffsetX="0" shadowOffsetY="2" shadowBlur="4" shadowOpacity="160" blurEnabled="0" blurRadius="4" transform="matrix(1,0,0,1,275,50.5)" pers-center="0,0" pers-size="0,0" pers-start="0,0" pers-end="0,0" locked="0" mesh="" flag=""/>
            <path id="shapePath1" d="M-4.5,-3.5 L554.5,-3.5 L554.5,104.5 L-4.5,104.5 L-4.5,-3.5 Z" style="stroke:none;fill-rule:evenodd;fill:#000000;fill-opacity:1;"/>
        </g>
    </g>
    <g id="Layer2" name="Layer 2" opacity="1">
        <g id="Shape2">
            <desc shapeID="2" type="0" basicInfo-basicType="0" basicInfo-roundedRectRadius="12" basicInfo-polygonSides="6" basicInfo-starPoints="5" bounding="rect(-23.0625,-35.876,46.125,71.7521)" text="" font-familyName="Apple 컬러 이모티콘" font-pixelSize="100" font-bold="0" font-underline="0" font-alignment="1" strokeStyle="0" markerStart="0" markerEnd="0" shadowEnabled="0" shadowOffsetX="0" shadowOffsetY="2" shadowBlur="4" shadowOpacity="160" blurEnabled="0" blurRadius="4" transform="matrix(1,0,0,1,25.9844,61.2854)" pers-center="0,0" pers-size="0,0" pers-start="0,0" pers-end="0,0" locked="0" mesh="" flag=""/>
            <path id="shapePath2" d="M2.92188,97.1281 C2.92188,97.1281 2.95313,25.4406 2.95313,25.4406 C2.95313,25.4406 12.6406,25.4094 12.6406,25.4094 C12.6406,25.4094 12.6094,88.6281 12.6094,88.6281 C12.6094,88.6281 49.0469,88.6281 49.0469,88.6281 C49.0469,88.6281 48.9843,94.9719 48.9843,94.9719 C48.9843,94.9719 8.67442,97.1615 8.67442,97.1615 C8.67442,97.1615 2.92188,97.1281 2.92188,97.1281 Z" style="stroke:none;fill-rule:evenodd;fill:url(#linearGradientFill2);fill-opacity:1;"/><defs><linearGradient id="linearGradientFill2" gradientUnits="userSpaceOnUse" x1="91.4864" y1="95.8073" x2="92.7269" y2="24.1144"><stop offset="0" stop-color="#439642" stop-opacity="1"/><stop offset="1" stop-color="#7cbf59" stop-opacity="1"/></linearGradient></defs>
        </g>
        <g id="Shape3">
            <desc shapeID="3" type="0" basicInfo-basicType="0" basicInfo-roundedRectRadius="12" basicInfo-polygonSides="6" basicInfo-starPoints="5" bounding="rect(-31.7875,-35.875,63.575,71.75)" text="" font-familyName="Apple 컬러 이모티콘" font-pixelSize="100" font-bold="0" font-underline="0" font-alignment="1" strokeStyle="0" markerStart="0" markerEnd="0" shadowEnabled="0" shadowOffsetX="0" shadowOffsetY="2" shadowBlur="4" shadowOpacity="160" blurEnabled="0" blurRadius="4" transform="matrix(1,0,0,1,102.803,57.0317)" pers-center="0,0" pers-size="0,0" pers-start="0,0" pers-end="0,0" locked="0" mesh="" flag=""/>
            <path id="shapePath3" d="M71.0156,92.8755 C71.0156,92.8755 80.9531,92.9067 80.9531,92.9067 C80.9531,92.9067 88.7656,71.3755 88.7656,71.3755 C88.7656,71.3755 117.127,71.4541 117.127,71.4541 C117.127,71.4541 123.656,90.6453 123.656,90.6453 C123.656,90.6453 134.591,90.8809 134.591,90.8809 C134.591,90.8809 108.984,21.1567 108.984,21.1567 C108.984,21.1567 98.0156,21.188 98.0156,21.188 C98.0156,21.188 71.0156,92.8755 71.0156,92.8755 Z" style="stroke:none;fill-rule:evenodd;fill:url(#linearGradientFill3);fill-opacity:1;"/><defs><linearGradient id="linearGradientFill3" gradientUnits="userSpaceOnUse" x1="91.1345" y1="91.5371" x2="92.375" y2="19.8442"><stop offset="0" stop-color="#439642" stop-opacity="1"/><stop offset="1" stop-color="#7cbf59" stop-opacity="1"/></linearGradient></defs>
        </g>
        <g id="Shape4">
            <desc shapeID="4" type="0" basicInfo-basicType="0" basicInfo-roundedRectRadius="12" basicInfo-polygonSides="6" basicInfo-starPoints="5" bounding="rect(-28.3435,-35.8827,56.687,71.7653)" text="" font-familyName="Apple 컬러 이모티콘" font-pixelSize="100" font-bold="0" font-underline="0" font-alignment="1" strokeStyle="0" markerStart="0" markerEnd="0" shadowEnabled="0" shadowOffsetX="0" shadowOffsetY="2" shadowBlur="4" shadowOpacity="160" blurEnabled="0" blurRadius="4" transform="matrix(1,0,0,1,189.172,52.1417)" pers-center="0,0" pers-size="0,0" pers-start="0,0" pers-end="0,0" locked="0" mesh="" flag=""/>
            <path id="shapePath4" d="M164.107,24.8251 C164.107,24.8251 204.703,24.9771 204.703,24.9771 C204.703,24.9771 160.829,79.9141 160.829,79.9141 C160.829,79.9141 160.938,88.0243 160.938,88.0243 C160.938,88.0243 217.516,88.0084 217.516,88.0084 C217.516,88.0084 217.453,79.4459 217.453,79.4459 C217.453,79.4459 173.055,79.4887 173.055,79.4887 C173.055,79.4887 217.325,24.6954 217.325,24.6954 C217.325,24.6954 217.318,16.259 217.318,16.259 C217.318,16.259 164.085,16.2731 164.085,16.2731 C164.085,16.2731 164.107,24.8251 164.107,24.8251 Z" style="stroke:none;fill-rule:evenodd;fill:url(#linearGradientFill4);fill-opacity:1;"/><defs><linearGradient id="linearGradientFill4" gradientUnits="userSpaceOnUse" x1="91.4869" y1="86.6743" x2="92.7274" y2="14.9814"><stop offset="0" stop-color="#439642" stop-opacity="1"/><stop offset="1" stop-color="#7cbf59" stop-opacity="1"/></linearGradient></defs>
        </g>
        <g id="Shape5">
            <desc shapeID="5" type="0" basicInfo-basicType="0" basicInfo-roundedRectRadius="12" basicInfo-polygonSides="6" basicInfo-starPoints="5" bounding="rect(-26.7341,-35.8898,53.4681,71.7797)" text="" font-familyName="Apple 컬러 이모티콘" font-pixelSize="100" font-bold="0" font-underline="0" font-alignment="1" strokeStyle="0" markerStart="0" markerEnd="0" shadowEnabled="0" shadowOffsetX="0" shadowOffsetY="2" shadowBlur="4" shadowOpacity="160" blurEnabled="0" blurRadius="4" transform="matrix(1,0,0,1,366.093,50.5834)" pers-center="0,0" pers-size="0,0" pers-start="0,0" pers-end="0,0" locked="0" mesh="" flag=""/>
            <path id="shapePath5" d="M339.391,86.4733 C339.391,86.4733 349.016,86.442 349.016,86.442 C349.016,86.442 349.234,56.192 349.234,56.192 C349.234,56.192 364.583,56.0543 371.385,56.0783 C372.83,56.0564 392.772,56.5688 392.827,35.6214 C392.883,14.4416 373.705,14.8308 371.849,14.6936 C361.019,14.7177 339.359,14.7233 339.359,14.7233 C339.359,14.7233 339.391,86.4733 339.391,86.4733 Z" style="stroke:none;fill-rule:evenodd;fill:url(#linearGradientFill5);fill-opacity:1;"/><defs><linearGradient id="linearGradientFill5" gradientUnits="userSpaceOnUse" x1="91.4865" y1="85.0766" x2="92.727" y2="13.3837"><stop offset="0" stop-color="#439642" stop-opacity="1"/><stop offset="1" stop-color="#7cbf59" stop-opacity="1"/></linearGradient></defs>
        </g>
        <g id="Shape6">
            <desc shapeID="6" type="0" basicInfo-basicType="0" basicInfo-roundedRectRadius="12" basicInfo-polygonSides="6" basicInfo-starPoints="5" bounding="rect(-4.81235,-35.828,9.62469,71.656)" text="" font-familyName="Apple 컬러 이모티콘" font-pixelSize="100" font-bold="0" font-underline="0" font-alignment="1" strokeStyle="0" markerStart="0" markerEnd="0" shadowEnabled="0" shadowOffsetX="0" shadowOffsetY="2" shadowBlur="4" shadowOpacity="160" blurEnabled="0" blurRadius="4" transform="matrix(1.0259,0,0,1.00044,438.235,55.357)" pers-center="0,0" pers-size="0,0" pers-start="0,0" pers-end="0,0" locked="0" mesh="" flag=""/>
            <path id="shapePath6" d="M433.298,19.5133 C433.298,19.5133 443.172,19.5446 443.172,19.5446 C443.172,19.5446 443.172,91.2008 443.172,91.2008 C443.172,91.2008 433.33,91.1383 433.33,91.1383 C433.33,91.1383 433.298,19.5133 433.298,19.5133 Z" style="stroke:none;fill-rule:evenodd;fill:url(#linearGradientFill6);fill-opacity:1;"/><defs><linearGradient id="linearGradientFill6" gradientUnits="userSpaceOnUse" x1="91.4865" y1="89.8979" x2="92.727" y2="18.205"><stop offset="0" stop-color="#439642" stop-opacity="1"/><stop offset="1" stop-color="#7cbf59" stop-opacity="1"/></linearGradient></defs>
        </g>
        <g id="Shape7">
            <desc shapeID="7" type="0" basicInfo-basicType="0" basicInfo-roundedRectRadius="12" basicInfo-polygonSides="6" basicInfo-starPoints="5" bounding="rect(-31.8157,-37.7506,63.6315,75.5012)" text="" font-familyName="Apple 컬러 이모티콘" font-pixelSize="100" font-bold="0" font-underline="0" font-alignment="1" strokeStyle="0" markerStart="0" markerEnd="0" shadowEnabled="0" shadowOffsetX="0" shadowOffsetY="2" shadowBlur="4" shadowOpacity="160" blurEnabled="0" blurRadius="4" transform="matrix(1,0,0,1,515.24,58.5907)" pers-center="0,0" pers-size="0,0" pers-start="0,0" pers-end="0,0" locked="0" mesh="" flag=""/>
            <path id="shapePath7" d="M547.056,68.2026 C547.056,68.2026 537.672,68.1398 537.672,68.1398 C537.672,68.1398 535.634,88.093 515.851,87.8601 C503.526,87.7151 493.258,80.1516 493.418,57.828 C493.512,44.8131 498.469,29.4625 516.721,29.1524 C534.648,28.8479 537.159,44.2567 537.159,44.2567 C537.159,44.2567 546.641,44.2671 546.641,44.2671 C546.641,44.2671 544.304,20.9058 517.021,20.8402 C493.361,20.7834 483.18,40.1452 483.429,58.5659 C483.681,77.2087 492.117,96.2805 514.979,96.3411 C547.06,96.4262 547.056,68.2026 547.056,68.2026 Z" style="stroke:none;fill-rule:evenodd;fill:url(#linearGradientFill7);fill-opacity:1;"/><defs><linearGradient id="linearGradientFill7" gradientUnits="userSpaceOnUse" x1="91.4866" y1="93.1781" x2="92.7271" y2="21.4852"><stop offset="0" stop-color="#439642" stop-opacity="1"/><stop offset="1" stop-color="#7cbf59" stop-opacity="1"/></linearGradient></defs>
        </g>
        <g id="Shape8">
            <desc shapeID="8" type="0" basicInfo-basicType="0" basicInfo-roundedRectRadius="12" basicInfo-polygonSides="6" basicInfo-starPoints="5" bounding="rect(-40.054,-30.5114,80.108,61.0228)" text="" font-familyName="Apple 컬러 이모티콘" font-pixelSize="100" font-bold="0" font-underline="0" font-alignment="1" strokeStyle="0" markerStart="0" markerEnd="0" shadowEnabled="0" shadowOffsetX="0" shadowOffsetY="2" shadowBlur="4" shadowOpacity="160" blurEnabled="0" blurRadius="4" transform="matrix(1,0,0,1,278.817,54.6293)" pers-center="0,0" pers-size="0,0" pers-start="0,0" pers-end="0,0" locked="0" mesh="" flag=""/>
            <path id="shapePath8" d="M274.609,85.1406 C274.609,85.1406 283.984,85.1094 283.984,85.1094 C283.984,85.1094 284.109,59.3281 284.109,59.3281 C284.109,59.3281 299.279,55.7317 306.992,50.6064 C314.542,45.5891 322.262,35.6228 317.301,28.1373 C312.789,21.3289 299.973,24.1885 291.825,29.196 C284.522,33.6839 280.404,42.7525 280.404,42.7525 C280.404,42.7525 275.573,31.6902 266.161,27.9206 C257.567,24.4787 244.628,22.0725 240.146,30.1072 C234.991,39.3455 245.372,48.132 252.781,52.5181 C261.106,57.4471 274.516,59.0781 274.516,59.0781 C274.516,59.0781 274.609,85.1406 274.609,85.1406 Z" style="stroke:none;fill-rule:evenodd;fill:url(#linearGradientFill8);fill-opacity:1;"/><defs><linearGradient id="linearGradientFill8" gradientUnits="userSpaceOnUse" x1="256.477" y1="86.6554" x2="256.89" y2="24.8867"><stop offset="0" stop-color="#439642" stop-opacity="1"/><stop offset="1" stop-color="#c8f293" stop-opacity="1"/></linearGradient></defs>
        </g>
    </g>
    <g id="Layer3" name="Layer 3" opacity="1">
        <g id="Shape9">
            <desc shapeID="9" type="0" basicInfo-basicType="0" basicInfo-roundedRectRadius="12" basicInfo-polygonSides="6" basicInfo-starPoints="5" bounding="rect(-11.2969,-15.8594,22.5939,31.7188)" text="" font-familyName="Apple 컬러 이모티콘" font-pixelSize="100" font-bold="0" font-underline="0" font-alignment="1" strokeStyle="0" markerStart="0" markerEnd="0" shadowEnabled="0" shadowOffsetX="0" shadowOffsetY="2" shadowBlur="4" shadowOpacity="160" blurEnabled="0" blurRadius="4" transform="matrix(1,0,0,1,102.75,47.6411)" pers-center="0,0" pers-size="0,0" pers-start="0,0" pers-end="0,0" locked="0" mesh="" flag=""/>
            <path id="shapePath9" d="M91.4531,63.5005 C91.4531,63.5005 114.047,63.5005 114.047,63.5005 C114.047,63.5005 103.109,31.7817 103.109,31.7817 C103.109,31.7817 91.4531,63.5005 91.4531,63.5005 Z" style="stroke:none;fill-rule:evenodd;fill:#000000;fill-opacity:1;"/>
        </g>
        <g id="Shape10">
            <desc shapeID="10" type="0" basicInfo-basicType="0" basicInfo-roundedRectRadius="12" basicInfo-polygonSides="6" basicInfo-starPoints="5" bounding="rect(-17.0371,-12.4898,34.0743,24.9796)" text="" font-familyName="Apple 컬러 이모티콘" font-pixelSize="100" font-bold="0" font-underline="0" font-alignment="1" strokeStyle="0" markerStart="0" markerEnd="0" shadowEnabled="0" shadowOffsetX="0" shadowOffsetY="2" shadowBlur="4" shadowOpacity="160" blurEnabled="0" blurRadius="4" transform="matrix(1,0,0,1,365.99,35.4936)" pers-center="0,0" pers-size="0,0" pers-start="0,0" pers-end="0,0" locked="0" mesh="" flag=""/>
            <path id="shapePath10" d="M349.047,23.0045 C349.047,23.0045 348.953,47.8795 348.953,47.8795 C348.953,47.8795 362.666,48.0221 369.203,47.9733 C375.893,47.9234 383.358,45.4219 383.016,34.567 C382.696,24.4376 374.645,23.0759 368.453,23.0358 C362.415,22.9966 349.047,23.0045 349.047,23.0045 Z" style="stroke:none;fill-rule:evenodd;fill:#000000;fill-opacity:1;"/>
        </g>
        <g id="Shape11">
            <desc shapeID="11" type="0" basicInfo-basicType="0" basicInfo-roundedRectRadius="12" basicInfo-polygonSides="6" basicInfo-starPoints="5" bounding="rect(-11.5891,-9.87612,23.1782,19.7522)" text="" font-familyName="Apple 컬러 이모티콘" font-pixelSize="100" font-bold="0" font-underline="0" font-alignment="1" strokeStyle="0" markerStart="0" markerEnd="0" shadowEnabled="0" shadowOffsetX="0" shadowOffsetY="2" shadowBlur="4" shadowOpacity="160" blurEnabled="0" blurRadius="4" transform="matrix(1.06802,0,0,1.09661,295.6,40.0838)" pers-center="0,0" pers-size="0,0" pers-start="0,0" pers-end="0,0" locked="0" mesh="" flag=""/>
            <path id="shapePath11" d="M283.223,50.9141 C283.223,50.9141 285.114,39.7439 295.696,32.9352 C301.823,28.993 306.708,28.2075 307.677,30.6227 C308.912,33.7037 306.451,34.9155 298.296,38.5348 C287.416,43.3635 283.223,50.9141 283.223,50.9141 Z" style="stroke:none;fill-rule:evenodd;fill:#000000;fill-opacity:1;"/>
        </g>
        <g id="Shape12">
            <desc shapeID="12" type="0" basicInfo-basicType="0" basicInfo-roundedRectRadius="12" basicInfo-polygonSides="6" basicInfo-starPoints="5" bounding="rect(-11.8894,-9.1781,23.7789,18.3562)" text="" font-familyName="Apple 컬러 이모티콘" font-pixelSize="100" font-bold="0" font-underline="0" font-alignment="1" strokeStyle="0" markerStart="0" markerEnd="0" shadowEnabled="0" shadowOffsetX="0" shadowOffsetY="2" shadowBlur="4" shadowOpacity="160" blurEnabled="0" blurRadius="4" transform="matrix(1.02673,0,0,1.05936,264.384,40.4291)" pers-center="0,0" pers-size="0,0" pers-start="0,0" pers-end="0,0" locked="0" mesh="" flag=""/>
            <path id="shapePath12" d="M276.592,50.152 C276.592,50.152 272.368,39.0368 263.747,33.8646 C257.226,29.952 252.608,29.764 252.221,32.8054 C251.661,37.2152 256.547,36.4711 262.825,39.8142 C271.042,44.1907 276.592,50.152 276.592,50.152 Z" style="stroke:none;fill-rule:evenodd;fill:#000000;fill-opacity:1;"/>
        </g>
        <g id="Shape13">
            <desc shapeID="13" type="0" basicInfo-basicType="0" basicInfo-roundedRectRadius="12" basicInfo-polygonSides="6" basicInfo-starPoints="5" bounding="rect(0,0,0,0)" text="" font-familyName="Apple 컬러 이모티콘" font-pixelSize="100" font-bold="0" font-underline="0" font-alignment="1" strokeStyle="0" markerStart="0" markerEnd="0" shadowEnabled="0" shadowOffsetX="0" shadowOffsetY="2" shadowBlur="4" shadowOpacity="160" blurEnabled="0" blurRadius="4" transform="matrix(1,0,0,1,308.734,31.9844)" pers-center="0,0" pers-size="0,0" pers-start="0,0" pers-end="0,0" locked="0" mesh="" flag=""/>
            <path id="shapePath13" d="M308.734,31.9844 Z" style="stroke:none;fill-rule:evenodd;fill:#000000;fill-opacity:1;"/>
        </g>
        <g id="Shape14">
            <desc shapeID="14" type="0" basicInfo-basicType="0" basicInfo-roundedRectRadius="12" basicInfo-polygonSides="6" basicInfo-starPoints="5" bounding="rect(0,0,0,0)" text="" font-familyName="Apple 컬러 이모티콘" font-pixelSize="100" font-bold="0" font-underline="0" font-alignment="1" strokeStyle="0" markerStart="0" markerEnd="0" shadowEnabled="0" shadowOffsetX="0" shadowOffsetY="2" shadowBlur="4" shadowOpacity="160" blurEnabled="0" blurRadius="4" transform="matrix(1,0,0,1,309.109,31.3281)" pers-center="0,0" pers-size="0,0" pers-start="0,0" pers-end="0,0" locked="0" mesh="" flag=""/>
            <path id="shapePath14" d="M309.109,31.3281 Z" style="stroke:none;fill-rule:evenodd;fill:#000000;fill-opacity:1;"/>
        </g>
        <g id="Shape15">
            <desc shapeID="15" type="0" basicInfo-basicType="0" basicInfo-roundedRectRadius="12" basicInfo-polygonSides="6" basicInfo-starPoints="5" bounding="rect(0,0,0,0)" text="" font-familyName="Apple 컬러 이모티콘" font-pixelSize="100" font-bold="0" font-underline="0" font-alignment="1" strokeStyle="0" markerStart="0" markerEnd="0" shadowEnabled="0" shadowOffsetX="0" shadowOffsetY="2" shadowBlur="4" shadowOpacity="160" blurEnabled="0" blurRadius="4" transform="matrix(1,0,0,1,308.991,31.3307)" pers-center="0,0" pers-size="0,0" pers-start="0,0" pers-end="0,0" locked="0" mesh="" flag=""/>
            <path id="shapePath15" d="M308.991,31.3307 Z" style="stroke:none;fill-rule:evenodd;fill:#000000;fill-opacity:1;"/>
        </g>
        <g id="Shape16">
            <desc shapeID="16" type="0" basicInfo-basicType="0" basicInfo-roundedRectRadius="12" basicInfo-polygonSides="6" basicInfo-starPoints="5" bounding="rect(0,0,0,0)" text="" font-familyName="Apple 컬러 이모티콘" font-pixelSize="100" font-bold="0" font-underline="0" font-alignment="1" strokeStyle="0" markerStart="0" markerEnd="0" shadowEnabled="0" shadowOffsetX="0" shadowOffsetY="2" shadowBlur="4" shadowOpacity="160" blurEnabled="0" blurRadius="4" transform="matrix(1,0,0,1,311.834,33.1587)" pers-center="0,0" pers-size="0,0" pers-start="0,0" pers-end="0,0" locked="0" mesh="" flag=""/>
            <path id="shapePath16" d="M311.834,33.1587 Z" style="stroke:none;fill-rule:evenodd;fill:#000000;fill-opacity:1;"/>
        </g>
        <g id="Shape17">
            <desc shapeID="17" type="0" basicInfo-basicType="0" basicInfo-roundedRectRadius="12" basicInfo-polygonSides="6" basicInfo-starPoints="5" bounding="rect(0,0,0,0)" text="" font-familyName="Apple 컬러 이모티콘" font-pixelSize="100" font-bold="0" font-underline="0" font-alignment="1" strokeStyle="0" markerStart="0" markerEnd="0" shadowEnabled="0" shadowOffsetX="0" shadowOffsetY="2" shadowBlur="4" shadowOpacity="160" blurEnabled="0" blurRadius="4" transform="matrix(1,0,0,1,308.178,32.1431)" pers-center="0,0" pers-size="0,0" pers-start="0,0" pers-end="0,0" locked="0" mesh="" flag=""/>
            <path id="shapePath17" d="M308.178,32.1431 Z" style="stroke:none;fill-rule:evenodd;fill:#000000;fill-opacity:1;"/>
        </g>
        <g id="Shape18">
            <desc shapeID="18" type="0" basicInfo-basicType="0" basicInfo-roundedRectRadius="12" basicInfo-polygonSides="6" basicInfo-starPoints="5" bounding="rect(0,0,0,0)" text="" font-familyName="Apple 컬러 이모티콘" font-pixelSize="100" font-bold="0" font-underline="0" font-alignment="1" strokeStyle="0" markerStart="0" markerEnd="0" shadowEnabled="0" shadowOffsetX="0" shadowOffsetY="2" shadowBlur="4" shadowOpacity="160" blurEnabled="0" blurRadius="4" transform="matrix(1,0,0,1,261.199,48.9784)" pers-center="0,0" pers-size="0,0" pers-start="0,0" pers-end="0,0" locked="0" mesh="" flag=""/>
            <path id="shapePath18" d="M261.199,48.9784 Z" style="stroke:none;fill-rule:evenodd;fill:#000000;fill-opacity:1;"/>
        </g>
    </g>
    <g id="Layer4" name="Layer 4" opacity="1">
        <g id="Shape19">
            <desc shapeID="19" type="0" basicInfo-basicType="0" basicInfo-roundedRectRadius="12" basicInfo-polygonSides="6" basicInfo-starPoints="5" bounding="rect(-271.267,-6.8877,542.534,13.7754)" text="" font-familyName="Apple 컬러 이모티콘" font-pixelSize="100" font-bold="0" font-underline="0" font-alignment="1" strokeStyle="0" markerStart="0" markerEnd="0" shadowEnabled="0" shadowOffsetX="0" shadowOffsetY="2" shadowBlur="4" shadowOpacity="160" blurEnabled="0" blurRadius="4" transform="matrix(1,0,0,1,278.747,91.8468)" pers-center="0,0" pers-size="0,0" pers-start="0,0" pers-end="0,0" locked="0" mesh="" flag=""/>
            <path id="shapePath19" d="M7.47998,97.2845 C7.47998,97.2845 161.393,84.9334 279.576,84.9591 C388.303,84.9827 550.014,98.7345 550.014,98.7345 C550.014,98.7345 388.172,89.3042 279.64,88.8168 C160.718,88.2827 7.47998,97.2845 7.47998,97.2845 Z" style="stroke:none;fill-rule:evenodd;fill:url(#radialGradientFill19);fill-opacity:1;"/><defs><radialGradient id="radialGradientFill19" gradientUnits="userSpaceOnUse" cx="278.945" cy="87.9389" r="271.611" fx="271.129" fy="91.8468"><stop offset="0.00124594" stop-color="#4d9d48" stop-opacity="1"/><stop offset="1" stop-color="#3f843a" stop-opacity="1"/></radialGradient></defs>
        </g>
    </g>
</svg>
