<?xml version="1.0"?>
<svg version="1.1" xmlns="http://www.w3.org/2000/svg" xmlns:xlink="http://www.w3.org/1999/xlink" width="550" height="100">
    <desc iVinci="yes" version="4.6" gridStep="20" showGrid="no" snapToGrid="no" codePlatform="0"/>
    <g id="Layer1" name="Layer 1" opacity="1">
        <g id="Shape1">
            <desc shapeID="1" type="2" basicInfo-basicType="0" basicInfo-roundedRectRadius="12" basicInfo-polygonSides="6" basicInfo-starPoints="5" bounding="rect(-309.5,-86,619,172)" text="L A Z    P I C" font-familyName="Apple 컬러 이모티콘" font-pixelSize="100" font-bold="0" font-underline="0" font-alignment="1" strokeStyle="0" markerStart="0" markerEnd="0" shadowEnabled="0" shadowOffsetX="0" shadowOffsetY="2" shadowBlur="4" shadowOpacity="160" blurEnabled="0" blurRadius="4" transform="matrix(1,0,0,1,273.276,58.9131)" pers-center="0,0" pers-size="0,0" pers-start="0,0" pers-end="0,0" locked="0" mesh="" flag=""/>
            <path id="shapePath1" d="M2.92444,14.1846 L12.6412,14.1846 L12.6412,77.3682 L48.9694,77.3682 L48.9694,85.9131 L2.92444,85.9131 L2.92444,14.1846 M114.006,56.5186 L103.118,24.8291 L91.5455,56.5186 L114.006,56.5186 M98.0397,14.1846 L109.026,14.1846 L135.051,85.9131 L124.407,85.9131 L117.131,64.4287 L88.7623,64.4287 L80.9987,85.9131 L71.0377,85.9131 L98.0397,14.1846 M160.868,77.8565 L204.862,22.7295 L164.09,22.7295 L164.09,14.1846 L217.362,14.1846 L217.362,22.5342 L173.124,77.3682 L217.362,77.3682 L217.362,85.9131 L160.868,85.9131 L160.868,77.8565 M339.321,14.1846 L371.596,14.1846 C377.977,14.1846 383.12,15.9831 387.026,19.5801 C390.932,23.1771 392.885,28.2308 392.885,34.7412 C392.885,40.3402 391.144,45.2149 387.661,49.3652 C384.178,53.5156 378.823,55.5908 371.596,55.5908 L349.038,55.5908 L349.038,85.9131 L339.321,85.9131 L339.321,14.1846 M377.212,24.0479 C375.063,23.0388 372.117,22.5342 368.374,22.5342 L349.038,22.5342 L349.038,47.3877 L368.374,47.3877 C372.736,47.3877 376.276,46.46 378.994,44.6045 C381.712,42.749 383.071,39.4776 383.071,34.7901 C383.071,29.5166 381.118,25.9359 377.212,24.0479 M433.309,14.1846 L443.124,14.1846 L443.124,85.9131 L433.309,85.9131 L433.309,14.1846 M538.042,19.4092 C543.055,24.1944 545.838,29.6305 546.391,35.7178 L536.919,35.7178 C535.844,31.0954 533.704,27.4333 530.498,24.7315 C527.291,22.0296 522.791,20.6787 516.997,20.6787 C509.933,20.6787 504.228,23.1608 499.882,28.125 C495.537,33.0892 493.364,40.6983 493.364,50.9522 C493.364,59.3506 495.325,66.1621 499.248,71.3867 C503.17,76.6113 509.021,79.2236 516.801,79.2236 C523.963,79.2236 529.415,76.473 533.159,70.9717 C535.145,68.0746 536.626,64.266 537.602,59.5459 L547.075,59.5459 C546.229,67.098 543.429,73.4294 538.676,78.5401 C532.98,84.6924 525.297,87.7686 515.63,87.7686 C507.296,87.7686 500.297,85.2458 494.633,80.2002 C487.179,73.527 483.452,63.2243 483.452,49.292 C483.452,38.7126 486.251,30.0375 491.85,23.2666 C497.905,15.9098 506.255,12.2315 516.899,12.2315 C525.981,12.2315 533.029,14.624 538.042,19.4092 Z" style="stroke:none;fill-rule:nonzero;fill:url(#linearGradientFill1);fill-opacity:1;"/><defs><linearGradient id="linearGradientFill1" gradientUnits="userSpaceOnUse" x1="339.605" y1="85.1648" x2="339.605" y2="12.2314"><stop offset="0" stop-color="#429542" stop-opacity="1"/><stop offset="1" stop-color="#83c45c" stop-opacity="1"/></linearGradient></defs>
        </g>
        <g id="Shape2">
            <desc shapeID="2" type="0" basicInfo-basicType="0" basicInfo-roundedRectRadius="12" basicInfo-polygonSides="6" basicInfo-starPoints="5" bounding="rect(-13.1186,-25.7192,26.2371,51.4384)" text="" font-familyName="Apple 컬러 이모티콘" font-pixelSize="100" font-bold="0" font-underline="0" font-alignment="1" strokeStyle="0" markerStart="0" markerEnd="0" shadowEnabled="0" shadowOffsetX="0" shadowOffsetY="2" shadowBlur="4" shadowOpacity="160" blurEnabled="0" blurRadius="4" transform="matrix(0.485089,-0.55804,0.676838,0.415317,262.603,41.9239)" pers-center="0,0" pers-size="0,0" pers-start="0,0" pers-end="0,0" locked="0" mesh="" flag=""/>
            <path id="shapePath2" d="M253.695,47.6834 C243.976,41.7198 240.488,36.1374 244.468,32.0999 C248.747,27.7603 258.897,27.6198 268.227,34.2326 C277.329,40.6834 279.544,53.6481 278.552,54.2702 C276.602,55.4118 263.414,53.6471 253.695,47.6834 Z" style="stroke:url(#linearGradientStroke2);stroke-width:9;stroke-linejoin:miter;stroke-miterlimit:2;stroke-linecap:round;fill:none;"/><defs><linearGradient id="linearGradientStroke2" gradientUnits="userSpaceOnUse" x1="266.836" y1="54.5599" x2="265.203" y2="30.336"><stop offset="0" stop-color="#5ca74c" stop-opacity="1"/><stop offset="1" stop-color="#daff9f" stop-opacity="1"/></linearGradient></defs>
        </g>
        <g id="Shape3">
            <desc shapeID="3" type="0" basicInfo-basicType="0" basicInfo-roundedRectRadius="12" basicInfo-polygonSides="6" basicInfo-starPoints="5" bounding="rect(-12.4001,-26.6781,24.8004,53.356)" text="" font-familyName="Apple 컬러 이모티콘" font-pixelSize="100" font-bold="0" font-underline="0" font-alignment="1" strokeStyle="0" markerStart="0" markerEnd="0" shadowEnabled="0" shadowOffsetX="0" shadowOffsetY="2" shadowBlur="4" shadowOpacity="160" blurEnabled="0" blurRadius="4" transform="matrix(0.543203,0.501681,-0.606968,0.463375,296.744,41.9611)" pers-center="0,0" pers-size="0,0" pers-start="0,0" pers-end="0,0" locked="0" mesh="" flag=""/>
            <path id="shapePath3" d="M290.373,35.6748 C298.173,28.2653 309.503,25.8433 313.254,29.912 C317.675,34.7084 312.293,43.1357 302.778,48.1064 C292.781,53.3285 283.295,55.9265 281.355,55.0654 C281.522,53.6899 282.181,43.4566 290.373,35.6748 Z" style="stroke:url(#linearGradientStroke3);stroke-width:8.5;stroke-linejoin:miter;stroke-miterlimit:2;stroke-linecap:round;fill:none;"/><defs><linearGradient id="linearGradientStroke3" gradientUnits="userSpaceOnUse" x1="268.69" y1="56.8339" x2="263.712" y2="33.0709"><stop offset="0" stop-color="#5ca74c" stop-opacity="1"/><stop offset="1" stop-color="#daff9f" stop-opacity="1"/></linearGradient></defs>
        </g>
        <g id="Shape4">
            <desc shapeID="4" type="0" basicInfo-basicType="1" basicInfo-roundedRectRadius="12" basicInfo-polygonSides="6" basicInfo-starPoints="5" bounding="rect(-4.7385,-21.8304,9.47702,43.6607)" text="" font-familyName="Apple 컬러 이모티콘" font-pixelSize="100" font-bold="0" font-underline="0" font-alignment="1" strokeStyle="0" markerStart="0" markerEnd="0" shadowEnabled="0" shadowOffsetX="0" shadowOffsetY="2" shadowBlur="4" shadowOpacity="160" blurEnabled="0" blurRadius="4" transform="matrix(1,0,0,0.672205,279.319,70.4903)" pers-center="0,0" pers-size="0,0" pers-start="0,0" pers-end="0,0" locked="0" mesh="" flag=""/>
            <path id="shapePath4" d="M274.581,55.8158 L284.058,55.8158 L284.058,85.1648 L274.581,85.1648 L274.581,55.8158 Z" style="stroke:none;fill-rule:evenodd;fill:url(#linearGradientFill4);fill-opacity:1;"/><defs><linearGradient id="linearGradientFill4" gradientUnits="userSpaceOnUse" x1="284.059" y1="85.1648" x2="284.059" y2="31.9786"><stop offset="0" stop-color="#469743" stop-opacity="1"/><stop offset="1" stop-color="#74b956" stop-opacity="1"/></linearGradient></defs>
        </g>
    </g>
</svg>
